<svg width="35" height="35" viewBox="0 0 35 35" fill="none" xmlns="http://www.w3.org/2000/svg">
<path fill-rule="evenodd" clip-rule="evenodd" d="M18.8435 5.37272V6.71623C18.8193 7.90778 16.8921 8.58694 16.2829 7.28511C16.2018 7.1063 16.1587 6.91257 16.1565 6.71623V5.37272H12.1273C11.0931 5.32296 10.4005 3.97137 11.1119 3.14966C11.3567 2.86724 11.5544 2.71393 12.1273 2.68569C13.4695 2.68569 14.813 2.68165 16.1565 2.67358V1.34352C16.1529 1.20027 16.1757 1.05759 16.2237 0.922575C16.4012 0.383285 16.9325 0 17.5269 0C18.2437 0.0282421 18.8274 0.564842 18.8435 1.34352V2.65744C21.5292 2.64131 24.2162 2.62651 26.9033 2.63996V1.34352C26.9167 0.62536 27.4412 0.0309318 28.2199 0H28.2723C28.9905 0.0282421 29.5742 0.564842 29.589 1.34352V2.66417L31.032 2.68703C33.091 2.75159 34.9227 4.52277 34.9617 6.66647C35.0128 14.7585 35.0128 22.8519 34.9617 30.9452C34.924 33.0231 33.1259 34.8843 30.9822 34.9247C21.9945 34.9798 13.0055 34.9798 4.01777 34.9247C1.94803 34.8857 0.0786743 33.1239 0.0383285 30.9452C-0.0127762 22.8519 -0.0127762 14.7585 0.0383285 6.66647C0.0759846 4.57387 1.86868 2.70048 4.0635 2.68569H5.41105V1.34352C5.40681 1.20022 5.42962 1.05742 5.47829 0.922575C5.65581 0.383285 6.18703 0 6.78012 0C7.49827 0.0282421 8.08194 0.564842 8.09673 1.34352V6.71623C8.07387 7.90644 6.20183 8.57349 5.56033 7.33353C5.46371 7.142 5.41262 6.93075 5.41105 6.71623V5.36734C4.952 5.36375 4.49292 5.36554 4.03391 5.37272C3.35207 5.39424 2.74553 5.99135 2.72402 6.68261C2.57406 14.7636 2.57406 22.8467 2.72402 30.9278C2.74553 31.611 3.34265 32.2161 4.03391 32.2377C13.0105 32.4044 21.9895 32.4044 30.9661 32.2377C31.6479 32.2161 32.2545 31.619 32.276 30.9278C32.4253 22.8478 32.4253 14.7625 32.276 6.68261C32.2556 6.33539 32.106 6.00836 31.8566 5.76593C31.6072 5.52349 31.2761 5.38321 30.9284 5.37272H29.589V6.71623C29.5661 7.89568 27.6887 8.56138 27.0525 7.33353C26.9566 7.14177 26.9055 6.93066 26.9033 6.71623V5.37272H18.8435ZM6.75322 26.8649C6.93332 26.8592 7.11272 26.8898 7.28079 26.9548C7.44885 27.0198 7.60213 27.1179 7.73155 27.2432C7.86096 27.3686 7.96385 27.5187 8.03412 27.6847C8.10439 27.8506 8.1406 28.0289 8.1406 28.2091C8.1406 28.3893 8.10439 28.5677 8.03412 28.7336C7.96385 28.8995 7.86096 29.0496 7.73155 29.175C7.60213 29.3004 7.44885 29.3985 7.28079 29.4635C7.11272 29.5285 6.93332 29.559 6.75322 29.5533C6.40408 29.5423 6.07293 29.3958 5.82986 29.1449C5.5868 28.8941 5.45088 28.5584 5.45088 28.2091C5.45088 27.8598 5.5868 27.5242 5.82986 27.2733C6.07293 27.0224 6.40408 26.876 6.75322 26.8649ZM12.1273 26.8649C12.3088 26.857 12.49 26.8859 12.66 26.9499C12.83 27.014 12.9853 27.1118 13.1165 27.2375C13.2477 27.3632 13.352 27.5141 13.4232 27.6812C13.4945 27.8484 13.5311 28.0282 13.5309 28.2099C13.5307 28.3915 13.4937 28.5713 13.4222 28.7383C13.3506 28.9052 13.246 29.056 13.1145 29.1814C12.9831 29.3068 12.8276 29.4043 12.6575 29.468C12.4874 29.5317 12.3061 29.5603 12.1246 29.552C11.7787 29.5361 11.4522 29.3875 11.2131 29.137C10.9741 28.8865 10.8408 28.5534 10.8412 28.2072C10.8415 27.8609 10.9754 27.5281 11.215 27.2781C11.4546 27.0281 11.7813 26.8801 12.1273 26.8649ZM17.5 26.8649C17.8459 26.8804 18.1725 27.0287 18.4119 27.279C18.6512 27.5293 18.7847 27.8622 18.7847 28.2085C18.7847 28.5547 18.6512 28.8876 18.4119 29.1379C18.1725 29.3882 17.8459 29.5365 17.5 29.552C17.1541 29.5365 16.8275 29.3882 16.5881 29.1379C16.3488 28.8876 16.2153 28.5547 16.2153 28.2085C16.2153 27.8622 16.3488 27.5293 16.5881 27.279C16.8275 27.0287 17.1541 26.8804 17.5 26.8649ZM6.75322 21.4922C6.93314 21.4865 7.11237 21.517 7.28026 21.582C7.44816 21.6469 7.6013 21.7449 7.73058 21.8701C7.85987 21.9954 7.96266 22.1454 8.03286 22.3111C8.10306 22.4769 8.13924 22.6551 8.13924 22.8351C8.13924 23.0151 8.10306 23.1932 8.03286 23.359C7.96266 23.5248 7.85987 23.6747 7.73058 23.8C7.6013 23.9252 7.44816 24.0232 7.28026 24.0882C7.11237 24.1531 6.93314 24.1836 6.75322 24.1779C6.40443 24.1669 6.07362 24.0206 5.8308 23.7699C5.58798 23.5193 5.4522 23.184 5.4522 22.8351C5.4522 22.4861 5.58798 22.1508 5.8308 21.9002C6.07362 21.6496 6.40443 21.5033 6.75322 21.4922ZM12.1273 21.4922C12.4834 21.4922 12.825 21.6337 13.0768 21.8855C13.3286 22.1374 13.4701 22.4789 13.4701 22.8351C13.4701 23.1912 13.3286 23.5328 13.0768 23.7846C12.825 24.0364 12.4834 24.1779 12.1273 24.1779C11.7711 24.1779 11.4296 24.0364 11.1777 23.7846C10.9259 23.5328 10.7844 23.1912 10.7844 22.8351C10.7844 22.4789 10.9259 22.1374 11.1777 21.8855C11.4296 21.6337 11.7711 21.4922 12.1273 21.4922ZM17.5 21.4922C17.6801 21.4865 17.8595 21.5171 18.0276 21.5821C18.1956 21.647 18.3489 21.7451 18.4783 21.8705C18.6077 21.9959 18.7106 22.146 18.7809 22.3119C18.8512 22.4779 18.8874 22.6562 18.8874 22.8364C18.8874 23.0166 18.8512 23.1949 18.7809 23.3609C18.7106 23.5268 18.6077 23.6769 18.4783 23.8023C18.3489 23.9277 18.1956 24.0258 18.0276 24.0908C17.8595 24.1557 17.6801 24.1863 17.5 24.1806C17.1509 24.1695 16.8197 24.0231 16.5766 23.7722C16.3336 23.5213 16.1977 23.1857 16.1977 22.8364C16.1977 22.4871 16.3336 22.1515 16.5766 21.9006C16.8197 21.6497 17.1509 21.5033 17.5 21.4922ZM22.8727 21.4922C23.0528 21.4865 23.2322 21.5171 23.4003 21.5821C23.5683 21.647 23.7216 21.7451 23.851 21.8705C23.9805 21.9959 24.0834 22.146 24.1536 22.3119C24.2239 22.4779 24.2601 22.6562 24.2601 22.8364C24.2601 23.0166 24.2239 23.1949 24.1536 23.3609C24.0834 23.5268 23.9805 23.6769 23.851 23.8023C23.7216 23.9277 23.5683 24.0258 23.4003 24.0908C23.2322 24.1557 23.0528 24.1863 22.8727 24.1806C22.5236 24.1695 22.1924 24.0231 21.9494 23.7722C21.7063 23.5213 21.5704 23.1857 21.5704 22.8364C21.5704 22.4871 21.7063 22.1515 21.9494 21.9006C22.1924 21.6497 22.5236 21.5033 22.8727 21.4922ZM28.2454 21.4922C28.4254 21.4865 28.6046 21.517 28.7725 21.582C28.9404 21.6469 29.0935 21.7449 29.2228 21.8701C29.3521 21.9954 29.4549 22.1454 29.5251 22.3111C29.5953 22.4769 29.6315 22.6551 29.6315 22.8351C29.6315 23.0151 29.5953 23.1932 29.5251 23.359C29.4549 23.5248 29.3521 23.6747 29.2228 23.8C29.0935 23.9252 28.9404 24.0232 28.7725 24.0882C28.6046 24.1531 28.4254 24.1836 28.2454 24.1779C27.8966 24.1669 27.5658 24.0206 27.323 23.7699C27.0802 23.5193 26.9444 23.184 26.9444 22.8351C26.9444 22.4861 27.0802 22.1508 27.323 21.9002C27.5658 21.6496 27.8966 21.5033 28.2454 21.4922ZM12.1273 16.1195C12.3035 16.1195 12.4781 16.1542 12.6409 16.2217C12.8037 16.2891 12.9517 16.388 13.0763 16.5126C13.201 16.6372 13.2998 16.7852 13.3673 16.948C13.4347 17.1109 13.4695 17.2854 13.4695 17.4617C13.4695 17.6379 13.4347 17.8125 13.3673 17.9753C13.2998 18.1381 13.201 18.2861 13.0763 18.4107C12.9517 18.5354 12.8037 18.6342 12.6409 18.7017C12.4781 18.7691 12.3035 18.8038 12.1273 18.8038C11.7713 18.8038 11.4299 18.6624 11.1782 18.4107C10.9265 18.159 10.7851 17.8176 10.7851 17.4617C10.7851 17.1057 10.9265 16.7643 11.1782 16.5126C11.4299 16.2609 11.7713 16.1195 12.1273 16.1195ZM17.5 16.1195C17.6815 16.1114 17.8627 16.1401 18.0328 16.204C18.2029 16.2678 18.3583 16.3655 18.4896 16.491C18.6209 16.6166 18.7254 16.7674 18.7968 16.9345C18.8682 17.1016 18.905 17.2813 18.905 17.463C18.905 17.6447 18.8682 17.8245 18.7968 17.9915C18.7254 18.1586 18.6209 18.3094 18.4896 18.435C18.3583 18.5606 18.2029 18.6582 18.0328 18.7221C17.8627 18.7859 17.6815 18.8147 17.5 18.8065C17.1541 18.791 16.8275 18.6427 16.5881 18.3925C16.3488 18.1422 16.2153 17.8093 16.2153 17.463C16.2153 17.1167 16.3488 16.7838 16.5881 16.5336C16.8275 16.2833 17.1541 16.135 17.5 16.1195ZM22.8727 16.1195C23.0542 16.1114 23.2355 16.1401 23.4055 16.204C23.5756 16.2678 23.731 16.3655 23.8623 16.491C23.9936 16.6166 24.0981 16.7674 24.1695 16.9345C24.2409 17.1016 24.2777 17.2813 24.2777 17.463C24.2777 17.6447 24.2409 17.8245 24.1695 17.9915C24.0981 18.1586 23.9936 18.3094 23.8623 18.435C23.731 18.5606 23.5756 18.6582 23.4055 18.7221C23.2355 18.7859 23.0542 18.8147 22.8727 18.8065C22.5268 18.791 22.2002 18.6427 21.9609 18.3925C21.7215 18.1422 21.588 17.8093 21.588 17.463C21.588 17.1167 21.7215 16.7838 21.9609 16.5336C22.2002 16.2833 22.5268 16.135 22.8727 16.1195ZM28.2454 16.1195C28.6016 16.1193 28.9432 16.2606 29.1952 16.5123C29.4471 16.764 29.5888 17.1055 29.589 17.4617C29.5891 17.8178 29.4478 18.1594 29.1961 18.4114C28.9444 18.6634 28.6029 18.805 28.2468 18.8052C28.0704 18.8053 27.8958 18.7706 27.7328 18.7032C27.5699 18.6358 27.4218 18.537 27.2971 18.4124C27.1723 18.2877 27.0733 18.1397 27.0057 17.9768C26.9382 17.814 26.9034 17.6394 26.9033 17.463C26.9032 17.2867 26.9378 17.112 27.0052 16.9491C27.0726 16.7861 27.1715 16.638 27.2961 16.5133C27.4207 16.3885 27.5687 16.2895 27.7316 16.222C27.8945 16.1544 28.0691 16.1196 28.2454 16.1195Z" fill="#44D9FF"/>
</svg>
