<svg width="35" height="35" viewBox="0 0 35 35" fill="none" xmlns="http://www.w3.org/2000/svg">
<path d="M17.5 0C7.83562 0 0 7.83562 0 17.5C0 27.1644 7.83562 35 17.5 35C27.1644 35 35 27.1644 35 17.5C35 7.83562 27.1644 0 17.5 0V0ZM17.5 32.8125C9.05625 32.8125 2.1875 25.9437 2.1875 17.5C2.1875 9.05625 9.05625 2.1875 17.5 2.1875C25.9437 2.1875 32.8125 9.05625 32.8125 17.5C32.8125 25.9437 25.9416 32.8125 17.5 32.8125ZM25.165 10.5394C24.9967 10.4293 24.8083 10.3535 24.6107 10.3163C24.413 10.2791 24.21 10.2811 24.0132 10.3224C23.8163 10.3636 23.6296 10.4432 23.4635 10.5566C23.2974 10.6701 23.1553 10.8151 23.0453 10.9834L15.6603 22.2688L12.1297 19.0006C11.5084 18.4275 10.5394 18.4647 9.96406 19.0859C9.38875 19.7072 9.42813 20.6741 10.0494 21.2494L14.9297 25.7644C14.9472 25.7797 14.9691 25.7841 14.9866 25.7994C15.0303 25.8344 15.0566 25.8825 15.1025 25.9153C15.1681 25.9591 15.2425 25.9678 15.3125 25.9984C15.3956 26.0378 15.4766 26.075 15.5641 26.0991C15.6494 26.1209 15.7325 26.1319 15.82 26.1384C15.9447 26.1516 16.065 26.1516 16.1875 26.1341C16.2378 26.1253 16.2859 26.1122 16.3363 26.0991C16.4872 26.0619 16.6272 26.0028 16.765 25.9197C16.7891 25.9044 16.8088 25.8869 16.8328 25.8716C16.9225 25.8103 17.0188 25.7644 17.0953 25.6812C17.15 25.6222 17.1741 25.5456 17.2178 25.48C17.22 25.4778 17.2244 25.4756 17.2244 25.4734L25.6069 12.6613C25.8294 12.3212 25.9079 11.9067 25.825 11.5089C25.7422 11.111 25.5048 10.7623 25.165 10.5394V10.5394Z" fill="#44D9FF"/>
</svg>
