<svg width="19" height="19" viewBox="0 0 19 19" fill="none" xmlns="http://www.w3.org/2000/svg">
<path d="M9.5 0C7.62108 0 5.78435 0.557165 4.22209 1.60104C2.65982 2.64491 1.44218 4.12861 0.723149 5.86451C0.00411622 7.6004 -0.184015 9.51054 0.182544 11.3534C0.549104 13.1962 1.45389 14.8889 2.78249 16.2175C4.11109 17.5461 5.80383 18.4509 7.64665 18.8175C9.48946 19.184 11.3996 18.9959 13.1355 18.2768C14.8714 17.5578 16.3551 16.3402 17.399 14.7779C18.4428 13.2156 19 11.3789 19 9.5C18.9973 6.98128 17.9955 4.5665 16.2145 2.78549C14.4335 1.00449 12.0187 0.00272419 9.5 0V0ZM9.5 17.4167C7.93423 17.4167 6.40363 16.9524 5.10174 16.0825C3.79985 15.2126 2.78515 13.9762 2.18596 12.5296C1.58676 11.083 1.42999 9.49122 1.73545 7.95553C2.04092 6.41985 2.79491 5.00924 3.90207 3.90207C5.00924 2.7949 6.41986 2.04092 7.95554 1.73545C9.49122 1.42998 11.083 1.58676 12.5296 2.18595C13.9762 2.78515 15.2126 3.79985 16.0825 5.10173C16.9524 6.40362 17.4167 7.93423 17.4167 9.5C17.4144 11.5989 16.5795 13.6112 15.0954 15.0954C13.6112 16.5795 11.5989 17.4144 9.5 17.4167V17.4167Z" fill="#A6A6A6"/>
<path d="M13.8661 11.1965L10.2917 9.05183V4.74992C10.2917 4.53996 10.2083 4.33859 10.0598 4.19013C9.91137 4.04166 9.71 3.95825 9.50004 3.95825C9.29008 3.95825 9.08871 4.04166 8.94025 4.19013C8.79178 4.33859 8.70837 4.53996 8.70837 4.74992V9.49992C8.71369 9.63542 8.75131 9.76768 8.8181 9.8857C8.88489 10.0037 8.97891 10.1041 9.09233 10.1784L13.0507 12.5534C13.1398 12.6092 13.2392 12.6466 13.343 12.6636C13.4468 12.6805 13.5529 12.6767 13.6552 12.6521C13.7574 12.6276 13.8538 12.583 13.9386 12.5208C14.0234 12.4586 14.095 12.3802 14.1492 12.2901C14.2034 12.1999 14.239 12.0999 14.2541 11.9958C14.2692 11.8917 14.2634 11.7857 14.237 11.6839C14.2107 11.5821 14.1643 11.4865 14.1006 11.4028C14.0369 11.3191 13.9572 11.249 13.8661 11.1965V11.1965Z" fill="#A6A6A6"/>
</svg>
