<svg width="37" height="40" viewBox="0 0 37 40" fill="none" xmlns="http://www.w3.org/2000/svg">
<path fill-rule="evenodd" clip-rule="evenodd" d="M20.0575 1.36564L34.0575 8.36562C34.6406 8.65538 35.1314 9.10207 35.4745 9.65545C35.8177 10.2088 35.9997 10.847 36 11.4981V28.1756C35.9997 28.8267 35.8177 29.4649 35.4745 30.0182C35.1314 30.5716 34.6406 31.0183 34.0575 31.3081L20.0575 38.3081C19.5713 38.5514 19.035 38.6781 18.4913 38.6781C17.9476 38.6781 17.4113 38.5514 16.925 38.3081L2.92508 31.3081C2.34256 31.0146 1.85365 30.5641 1.51351 30.0075C1.17338 29.4509 0.995545 28.8104 1.00008 28.1581V11.4981C1.00043 10.847 1.18241 10.2088 1.52557 9.65545C1.86873 9.10207 2.35946 8.65538 2.94258 8.36562L16.9425 1.36564C17.4265 1.12515 17.9596 1 18.5 1C19.0405 1 19.5736 1.12515 20.0575 1.36564V1.36564Z" stroke="#44D9FF" stroke-width="2" stroke-linecap="round" stroke-linejoin="round"/>
<path d="M1.56006 9.60811L18.5 18.0781L35.44 9.60811M18.5 38.658V18.0781M9.75004 4.95312L27.25 13.7031" stroke="#44D9FF" stroke-width="2" stroke-linecap="round" stroke-linejoin="round"/>
</svg>
