<svg width="40" height="46" viewBox="0 0 40 46" fill="none" xmlns="http://www.w3.org/2000/svg">
<path d="M27.0862 25.1351C27.48 25.2132 27.8862 25.2487 28.2862 25.2487C32.7487 25.2487 36.8237 20.5425 37.7737 14.3031C38.28 10.9953 37.855 7.70168 36.5862 5.03981C35.2925 2.31406 33.2675 0.567878 30.8925 0.113586C30.4987 0.0355046 30.0925 1.29974e-05 29.6925 1.29974e-05C25.23 1.29974e-05 21.155 4.70619 20.205 10.9456C19.155 17.8452 22.2425 24.2052 27.0862 25.1351ZM30.6862 1.49066C32.6737 1.87397 34.38 3.36461 35.4925 5.69996C36.63 8.09209 37.005 11.0663 36.5487 14.0689C35.6987 19.6481 32.1487 23.8503 28.2925 23.8503C28.0737 23.8503 27.8612 23.829 27.6425 23.8077C27.1487 22.31 25.6237 16.681 29.4487 13.9127C33.7612 10.7965 31.3237 4.03895 30.155 1.41968C30.33 1.43387 30.5112 1.45517 30.6862 1.49066ZM21.4362 11.1799C22.2175 6.05487 25.28 2.09401 28.7675 1.49066C29.5925 3.21555 32.5175 10.0228 28.7675 12.7344C24.805 15.595 25.5925 20.9471 26.2237 23.4173C22.6925 21.9338 20.5862 16.7662 21.4362 11.1799Z" fill="#2456A0"/>
<path d="M33.0891 26.6967C30.8454 26.6967 28.3329 27.5272 26.0141 29.025C24.1829 30.2104 22.6516 31.7153 21.4954 33.3266C22.3141 31.9779 22.7079 30.4943 22.6391 28.9682C22.4454 24.8512 18.7391 21.5363 13.8579 20.7839C16.3641 20.7129 18.4079 19.641 19.6141 17.7245C20.8829 15.7157 21.0766 13.0609 20.1641 10.25C19.2766 7.52421 17.4516 4.96172 15.0141 3.03098C12.5391 1.07894 9.73914 0 7.12039 0C4.49539 0 2.35789 1.09314 1.10789 3.07357C-1.45461 7.1338 0.614139 13.721 5.71414 17.76C7.61414 19.2648 9.70789 20.2444 11.7641 20.6206C11.4766 20.6206 11.1891 20.6206 10.8954 20.6348C4.65789 21.0039 -0.223361 25.3481 0.00788897 30.3098C0.232889 35.0728 4.90789 38.6716 10.8891 38.6716C11.1704 38.6716 11.4579 38.6645 11.7454 38.6432C14.7266 38.4657 17.4954 37.3939 19.5391 35.6193C20.1329 35.1082 20.6329 34.5475 21.0641 33.9583C19.2329 36.8047 18.5891 39.928 19.6516 42.2988C20.5829 44.3928 22.6704 45.5925 25.3704 45.5925C27.6141 45.5925 30.1266 44.7619 32.4454 43.2642C37.7016 39.8641 40.5516 33.9086 38.8079 29.9904C37.8766 27.8964 35.7891 26.6967 33.0891 26.6967ZM7.12039 1.40547C9.47664 1.40547 12.0204 2.39213 14.2829 4.1809C16.5141 5.94838 18.1829 8.27663 18.9829 10.7326C19.7516 13.1035 19.6141 15.2969 18.5891 16.9153C18.4704 17.1069 18.3391 17.2844 18.1954 17.4547C16.7454 13.1887 13.5266 10.4345 9.08289 9.70339C5.61414 9.13553 3.76414 4.15251 3.27039 2.62637C4.27664 1.83846 5.58914 1.40547 7.12039 1.40547ZM6.43914 16.6171C1.90164 13.0254 -0.0296109 7.31126 2.13289 3.88278C2.17664 3.81179 2.23289 3.74791 2.28289 3.67692C3.05164 5.84191 5.10789 10.47 8.90164 11.0947C13.0016 11.769 15.9329 14.3315 17.1516 18.3207L17.3766 18.2356C16.3829 18.988 15.0954 19.3997 13.6016 19.3997C11.2454 19.3997 8.70164 18.413 6.43914 16.6171ZM10.9641 22.0332C11.2329 22.019 11.4954 22.0119 11.7579 22.0119C15.7579 22.0119 19.1766 23.8361 20.6329 26.4625C20.3204 27.5414 19.0704 31.3745 16.7641 32.2121C15.5954 32.638 14.2704 32.1979 12.8266 30.8989C7.91414 26.498 3.34539 27.9957 1.33914 29.0392C1.92039 25.3694 5.94539 22.3313 10.9641 22.0332ZM18.7766 34.512C16.9329 36.1162 14.4141 37.0816 11.6829 37.2448C6.28914 37.5643 1.77039 34.5759 1.30789 30.6292C2.50164 29.8626 7.03914 27.506 12.0454 31.9992C13.3641 33.1846 14.6454 33.7809 15.8641 33.7809C16.3016 33.7809 16.7266 33.7028 17.1516 33.5537C19.2829 32.78 20.6204 30.2033 21.3204 28.4003C21.3579 28.6133 21.3829 28.8262 21.3954 29.0463C21.4829 31.0267 20.5516 32.9717 18.7766 34.512ZM20.7704 41.6742C19.3141 38.409 21.9454 33.284 26.6391 30.2459C28.7704 28.8617 31.0641 28.1022 33.0891 28.1022C33.8079 28.1022 34.4641 28.2087 35.0579 28.3932C34.2766 30.1039 31.8891 34.512 27.6454 35.4561C23.2954 36.4285 21.6141 40.1126 21.0079 42.1072C20.9204 41.9723 20.8391 41.8303 20.7704 41.6742ZM31.8204 42.0504C29.6891 43.4346 27.3954 44.1941 25.3704 44.1941C24.0141 44.1941 22.8641 43.8463 22.0079 43.2074C22.2891 41.8942 23.5016 37.8127 27.8891 36.8331C32.7829 35.74 35.4016 30.7783 36.2141 28.9327C36.8641 29.3515 37.3704 29.9123 37.6829 30.615C39.1454 33.8802 36.5141 39.0123 31.8204 42.0504Z" fill="#2456A0"/>
</svg>
