<svg width="23" height="22" viewBox="0 0 23 22" fill="none" xmlns="http://www.w3.org/2000/svg">
<path d="M20.0292 1.83337H2.97083C2.69125 1.83337 2.42312 1.93961 2.22542 2.12871C2.02773 2.31781 1.91666 2.57428 1.91666 2.84171V19.1584C1.91666 19.2908 1.94393 19.4219 1.99691 19.5442C2.04988 19.6666 2.12753 19.7777 2.22542 19.8714C2.32331 19.965 2.43952 20.0393 2.56742 20.09C2.69532 20.1406 2.8324 20.1667 2.97083 20.1667H12.1517V13.0625H9.66V10.3125H12.1517V8.25004C12.1 7.76582 12.1598 7.27666 12.3268 6.81687C12.4937 6.35708 12.7638 5.93779 13.1181 5.58842C13.4724 5.23904 13.9023 4.96804 14.3777 4.79443C14.8531 4.62081 15.3624 4.54877 15.87 4.58337C16.6159 4.57898 17.3614 4.61571 18.1029 4.69337V7.16837H16.5792C15.3717 7.16837 15.1417 7.71837 15.1417 8.51587V10.285H18.0167L17.6429 13.035H15.1417V20.1667H20.0292C20.1676 20.1667 20.3047 20.1406 20.4326 20.09C20.5605 20.0393 20.6767 19.965 20.7746 19.8714C20.8725 19.7777 20.9501 19.6666 21.0031 19.5442C21.0561 19.4219 21.0833 19.2908 21.0833 19.1584V2.84171C21.0833 2.70929 21.0561 2.57817 21.0031 2.45583C20.9501 2.3335 20.8725 2.22234 20.7746 2.12871C20.6767 2.03508 20.5605 1.9608 20.4326 1.91013C20.3047 1.85946 20.1676 1.83337 20.0292 1.83337Z" fill="#297DF9"/>
</svg>
