<svg width="41" height="46" viewBox="0 0 41 46" fill="none" xmlns="http://www.w3.org/2000/svg">
<path d="M20.4667 22.7302H20.8167C21.803 22.7327 22.78 22.5142 23.6919 22.0873C24.6038 21.6603 25.4325 21.0333 26.1307 20.2421C26.829 19.4509 27.3829 18.511 27.7608 17.4763C28.1388 16.4416 28.3333 15.3324 28.3333 14.2123V8.53361C28.3485 6.42813 27.675 4.3912 26.4434 2.81749C25.2117 1.24378 23.5095 0.245347 21.6667 0.0156357C21.5784 -0.000957843 21.4883 -0.000957843 21.4 0.0156357H21.2833C20.6248 -0.0289571 19.9639 0.0219295 19.3167 0.167066C17.5922 0.600193 16.0533 1.69908 14.9622 3.27647C13.8712 4.85385 13.2955 6.81212 13.3333 8.81754V13.2658C13.2056 15.3576 13.7326 17.4334 14.8212 19.127C15.9098 20.8205 17.4902 22.0229 19.2833 22.522C19.5 22.522 19.7 22.522 19.9167 22.522C20.0293 22.5921 20.1549 22.631 20.2833 22.6356L20.4667 22.7302ZM21.6667 4.74784L21.8333 4.17998L21.8833 3.8014V3.46068C21.8833 3.30925 21.8833 3.15782 21.9667 3.00639C22.05 2.85496 21.9667 2.76032 21.9667 2.64674C21.9667 2.53317 21.9667 2.2871 21.9667 2.09781C23.2877 2.38021 24.4804 3.17791 25.3386 4.35304C26.1968 5.52816 26.6666 7.00688 26.6667 8.53361V14.2123C26.6812 15.9128 26.1144 17.5535 25.0855 18.7892C24.0566 20.0248 22.6458 20.759 21.15 20.8373C21.15 20.7427 21.15 20.6481 21.15 20.5534C21.15 20.4588 21.15 20.2316 21.15 20.0991V19.8152L21.2333 19.4555V19.2284L21.4 18.6984C21.8186 17.494 22.0225 16.2072 22 14.9126C22.0216 13.6181 21.8177 12.3315 21.4 11.1269C21.0439 10.1234 20.8737 9.04727 20.9 7.96574C20.9504 6.84326 21.2118 5.74604 21.6667 4.74784ZM20 18.5659L19.9 18.9255V19.2473C19.9 19.3988 19.9 19.5691 19.8 19.7395C19.7 19.9098 19.8 19.9477 19.8 20.0613C19.8 20.1748 19.8 20.4398 19.8 20.667C18.3553 20.2839 17.0783 19.3281 16.1985 17.9715C15.3187 16.6149 14.8937 14.9464 15 13.2658V8.81754C14.9683 7.2601 15.4101 5.73782 16.251 4.50701C17.0919 3.2762 18.2805 2.41201 19.6167 2.05995C19.9129 1.98375 20.2137 1.93312 20.5167 1.90852C20.5167 2.02209 20.5167 2.09781 20.5167 2.19245C20.5167 2.28709 20.5167 2.51424 20.5167 2.64674V2.9496L20.4333 3.30925V3.55533L20.2667 4.08533C19.8485 5.28989 19.6446 6.57656 19.6667 7.8711C19.6451 9.1656 19.849 10.4522 20.2667 11.6569C20.6228 12.6604 20.793 13.7365 20.7667 14.818C20.7126 15.9277 20.4512 17.0118 20 17.998V18.5659ZM40 37.419C40.0615 36.2591 39.913 35.0971 39.5635 34.0049C39.214 32.9128 38.6711 31.9136 37.9682 31.0692C37.2653 30.2247 36.4174 29.553 35.4768 29.0954C34.5363 28.6378 33.5232 28.4042 32.5 28.4089C30.5474 28.4089 29.4526 28.4089 27.5 28.4089C25.6461 28.3916 23.8526 29.1565 22.467 30.5554C21.0814 31.9542 20.2023 33.8874 20 35.9804C19.9854 36.0807 19.9854 36.183 20 36.2833C19.9971 36.3274 19.9971 36.3717 20 36.4158C19.9604 37.1637 20.0052 37.9143 20.1333 38.6494C20.5147 40.6079 21.4823 42.3557 22.8711 43.5948C24.26 44.834 25.9842 45.4878 27.75 45.4448H31.6667C33.5085 45.5899 35.3362 44.9914 36.8274 43.755C38.3185 42.5186 39.3772 40.7238 39.8167 38.6872C39.889 38.4193 39.9502 38.1477 40 37.8733C40.0084 37.7979 40.0084 37.7216 40 37.6461C40.0085 37.5707 40.0085 37.4944 40 37.419ZM31.6667 43.5519H27.75C26.3787 43.5879 25.0383 43.0861 23.9546 42.1311C22.8709 41.1761 22.11 39.8262 21.8 38.3087C21.7776 37.9684 21.7776 37.6267 21.8 37.2865H22H22.45H22.7L23.0333 37.3811H23.2333L23.7 37.5704C24.7604 38.0463 25.8934 38.2779 27.0333 38.2519C28.1732 38.2779 29.3063 38.0463 30.3667 37.5704C31.2502 37.166 32.1977 36.9727 33.15 37.0026C34.1023 36.9727 35.0498 37.166 35.9333 37.5704L36.4333 37.7597L36.75 37.8733H37.0333L37.4667 37.9869H37.75H38.2833C37.9678 39.6714 37.1211 41.1668 35.9025 42.1918C34.6838 43.2167 33.1774 43.7004 31.6667 43.5519ZM38.0167 36.5293H37.6167H37.35L37.0333 36.4347H36.8333L36.3667 36.2454C35.3063 35.7696 34.1732 35.5379 33.0333 35.564C31.8934 35.5379 30.7604 35.7696 29.7 36.2454C28.8164 36.6499 27.8689 36.8432 26.9167 36.8133C25.959 36.7557 25.0224 36.4721 24.1667 35.9804L23.6667 35.7911L23.3333 35.7343H23.05L22.6333 35.6208H22.3333H21.8167C22.0752 34.1239 22.7832 32.7754 23.8197 31.8054C24.8562 30.8354 26.1569 30.3039 27.5 30.3018H32.5C33.9974 30.2853 35.442 30.929 36.5299 32.0975C37.6179 33.2661 38.2644 34.8683 38.3333 36.5672L38.0167 36.5293ZM8.33333 22.8438C8.24589 22.7864 8.14982 22.7479 8.05 22.7302H7.86667H7.5C5.51088 22.7302 3.60322 23.6277 2.1967 25.2251C0.790177 26.8225 0 28.9891 0 31.2482L0 36.9268C0.0094857 39.0128 0.694069 41.0219 1.92341 42.5717C3.15274 44.1214 4.84098 45.1036 6.66667 45.3313C6.77932 45.4013 6.90495 45.4402 7.03333 45.4448H7.21667H7.58333C9.55798 45.4199 11.4443 44.5115 12.8328 42.9168C14.2214 41.322 15.0001 39.1697 15 36.9268V31.2482C14.9905 29.1623 14.3059 27.1532 13.0766 25.6034C11.8473 24.0536 10.159 23.0714 8.33333 22.8438ZM6.66667 40.7126L6.5 41.2805L6.45 41.6591V41.9998C6.45 42.1512 6.45 42.3026 6.36667 42.473C6.28333 42.6434 6.36667 42.7001 6.36667 42.8137C6.36667 42.9273 6.36667 43.1734 6.36667 43.4005C5.04573 43.1034 3.85599 42.2964 2.99931 41.1164C2.14263 39.9364 1.67179 38.4562 1.66667 36.9268V31.2482C1.66446 29.5517 2.23539 27.9189 3.26177 26.6863C4.28815 25.4537 5.69177 24.7152 7.18333 24.6231C7.18333 24.7178 7.18333 24.8124 7.18333 24.907C7.18333 25.0017 7.18333 25.2288 7.18333 25.3613V25.6642L7.1 26.0238V26.251L6.93333 26.781C6.51478 27.9854 6.31084 29.2722 6.33333 30.5668C6.31173 31.8613 6.51563 33.1478 6.93333 34.3525C7.28944 35.356 7.45965 36.4321 7.43333 37.5136C7.38056 38.6297 7.11922 39.7202 6.66667 40.7126ZM13.3333 36.9268C13.3355 38.6234 12.7646 40.2562 11.7382 41.4888C10.7118 42.7214 9.30823 43.4598 7.81667 43.5519C7.81667 43.4384 7.81667 43.3627 7.81667 43.268C7.81667 43.1734 7.81667 42.9462 7.81667 42.8137V42.5109L7.9 42.1512V41.9241L8.06667 41.3941C8.48479 40.1895 8.68871 38.9028 8.66667 37.6083C8.68827 36.3138 8.48437 35.0272 8.06667 33.8225C7.71056 32.819 7.54035 31.7429 7.56667 30.6614C7.61842 29.5452 7.87983 28.4545 8.33333 27.4624L8.5 26.8946L8.55 26.516V26.1753C8.55 26.0238 8.55 25.8724 8.63333 25.7021C8.71667 25.5317 8.63333 25.4749 8.63333 25.3424C8.63333 25.2099 8.63333 24.9828 8.63333 24.7745C9.95427 25.0717 11.144 25.8787 12.0007 27.0586C12.8574 28.2386 13.3282 29.7188 13.3333 31.2482V36.9268Z" fill="#44D9FF"/>
</svg>
