<svg width="55" height="55" viewBox="0 0 55 55" fill="none" xmlns="http://www.w3.org/2000/svg">
<path d="M54.8956 18.0741C54.946 17.7447 54.897 17.404 54.7578 17.1157V16.862C54.7253 16.6802 54.6637 16.5081 54.5766 16.3557C54.4896 16.2033 54.3788 16.0736 54.2507 15.974C54.1226 15.8744 53.9796 15.8069 53.8301 15.7755C53.6807 15.7441 53.5276 15.7493 53.3798 15.7909L44.7898 18.215C41.1881 19.2293 38.0458 21.9143 36.0208 25.7078C33.9958 29.5012 33.2451 34.1091 33.9259 38.5665L32.0885 40.5115L29.4931 26.6713C31.5667 23.8351 32.6788 20.1337 32.602 16.3243C32.5251 12.515 31.2651 8.88563 29.0797 6.17885L24.3253 0.400368C24.0966 0.142861 23.7974 0 23.487 0C23.1766 0 22.8774 0.142861 22.6487 0.400368C20.3821 3.20391 19.1103 6.99321 19.1103 10.9426C19.1103 14.8919 20.3821 18.6812 22.6487 21.4848L27.2423 27.1223L28.827 35.9451L26.5303 35.184C25.537 30.8186 23.2131 27.0895 20.0402 24.77C16.8674 22.4504 13.0889 21.7182 9.48805 22.725L0.898044 25.1492C0.597881 25.252 0.342366 25.4948 0.186039 25.8257C0.0828248 26.0391 0.0273633 26.2822 0.0252632 26.5304C-0.031986 26.8564 0.00880444 27.1968 0.140103 27.4888C1.0794 31.9209 3.39018 35.7287 6.58123 38.1027C9.77227 40.4766 13.5919 41.2296 17.2282 40.2014L25.5197 37.8337L29.4012 39.1021L32.1344 53.9007C32.192 54.2138 32.3349 54.4934 32.5395 54.6933C32.7442 54.8932 32.9983 55.0014 33.2599 55H33.5125C33.6606 54.96 33.8008 54.8844 33.925 54.7776C34.0492 54.6708 34.1549 54.5348 34.2361 54.3776C34.3172 54.2203 34.3722 54.0449 34.3978 53.8615C34.4234 53.678 34.4192 53.4901 34.3853 53.3087L32.5708 43.6967L35.6026 40.4551L43.894 38.1155C47.448 37.1138 50.5562 34.4846 52.5839 30.765C54.6115 27.0454 55.4055 22.5161 54.8038 18.1023L54.8956 18.0741ZM9.97038 25.4029C12.7521 24.6405 15.6641 25.1145 18.1877 26.7405C20.7113 28.3665 22.6828 31.039 23.7511 34.282C22.74 33.8592 21.7571 33.3409 20.8112 32.7317C19.5341 31.9024 18.196 31.2229 16.8148 30.7022C15.4054 30.1039 13.9384 29.7343 12.4509 29.6028C11.1361 29.4919 9.83881 29.1697 8.5923 28.6445C7.40936 28.2008 6.25091 27.6641 5.12414 27.0378L4.80259 26.8686L9.97038 25.4029ZM16.7229 37.3263C14.0028 38.0739 11.1555 37.6394 8.66729 36.0972C6.17908 34.5549 4.20425 32.0004 3.08 28.87L4.22839 29.4619C5.42994 30.131 6.66506 30.7054 7.92623 31.1814C9.33562 31.7796 10.8027 32.1492 12.2901 32.2807C13.5791 32.4465 14.8451 32.816 16.0569 33.38C17.3195 33.8565 18.5424 34.4794 19.7088 35.2404L21.0869 36.0578L16.7229 37.3263ZM29.3094 22.0203V21.6257C29.2859 20.2515 29.116 18.8869 28.8041 17.5667C28.5206 16.2358 28.0959 14.9564 27.5408 13.7613C27.0752 12.7617 26.72 11.6906 26.4843 10.5761C26.2128 9.45934 26.066 8.30248 26.0479 7.13723C26.0479 6.93992 26.0479 6.7426 26.0479 6.5171L27.449 8.23655C28.8772 10.0198 29.8223 12.3005 30.1552 14.7674C30.4882 17.2343 30.1928 19.7671 29.3094 22.0203ZM23.3377 3.89565C23.5929 4.97755 23.7319 6.09572 23.7511 7.2218C23.7761 8.5959 23.946 9.96024 24.2564 11.2808C24.5348 12.6094 24.9517 13.8884 25.4967 15.0862C25.9644 16.0945 26.3198 17.1752 26.5532 18.2996C26.8406 19.4514 26.9952 20.6468 27.0126 21.8512C27.0126 22.2177 27.0126 22.6405 27.0126 23.0633L24.2564 19.6526C22.5919 17.5901 21.5841 14.8643 21.4156 11.9688C21.2471 9.07324 21.9289 6.19934 23.3377 3.86746V3.89565ZM37.7616 27.4888C38.5982 25.8398 39.6926 24.4104 40.9817 23.2832C42.2708 22.156 43.7289 21.3531 45.2721 20.921L50.2791 19.5116L49.8886 19.8499C48.6664 20.8461 47.5278 21.9886 46.4894 23.2606C45.4189 24.5479 44.4571 25.9645 43.6184 27.4888C42.8489 28.8244 41.9717 30.0615 41 31.1814C40.0607 32.338 39.0297 33.3766 37.9223 34.282C37.246 34.8404 36.5943 35.4426 35.9701 36.086C35.8291 33.0619 36.4549 30.0585 37.7616 27.4888ZM50.9681 28.6727C50.1315 30.3216 49.0371 31.751 47.748 32.8782C46.4589 34.0055 45.0008 34.8083 43.4576 35.2404L39.1396 36.4525C40.3826 35.4874 41.5443 34.3732 42.6078 33.1263C43.672 31.8933 44.6337 30.5336 45.4788 29.0673C46.25 27.7333 47.1271 26.4963 48.0971 25.3747C49.0437 24.2166 50.0824 23.1779 51.1978 22.274C51.6801 21.8794 52.1854 21.4284 52.7826 20.8365C52.8051 23.635 52.1756 26.3831 50.9681 28.7572V28.6727Z" fill="#297DF9"/>
</svg>
