<svg width="20" height="20" viewBox="0 0 20 20" fill="none" xmlns="http://www.w3.org/2000/svg">
<path d="M15.34 3.83129C15.1027 3.83129 14.8707 3.89861 14.6733 4.02474C14.476 4.15086 14.3222 4.33013 14.2313 4.53987C14.1405 4.7496 14.1168 4.98039 14.1631 5.20305C14.2094 5.42571 14.3236 5.63023 14.4915 5.79076C14.6593 5.95128 14.8731 6.0606 15.1059 6.10489C15.3387 6.14918 15.5799 6.12645 15.7992 6.03957C16.0185 5.9527 16.2059 5.80558 16.3378 5.61682C16.4696 5.42806 16.54 5.20614 16.54 4.97912C16.54 4.6747 16.4136 4.38274 16.1885 4.16748C15.9635 3.95222 15.6583 3.83129 15.34 3.83129ZM19.94 6.14608C19.9206 5.35245 19.7652 4.56724 19.48 3.82173C19.2257 3.18386 18.83 2.60626 18.32 2.12868C17.8248 1.6384 17.2196 1.26225 16.55 1.02868C15.7727 0.747621 14.9508 0.595582 14.12 0.57912C13.06 0.521728 12.72 0.521729 10 0.521729C7.28 0.521729 6.94 0.521728 5.88 0.57912C5.04915 0.595582 4.22734 0.747621 3.45 1.02868C2.78168 1.26461 2.17693 1.64044 1.68 2.12868C1.16743 2.60233 0.774176 3.18128 0.53 3.82173C0.236161 4.56527 0.07721 5.35135 0.0599999 6.14608C-5.58794e-08 7.15999 0 7.48521 0 10.0869C0 12.6887 -5.58794e-08 13.0139 0.0599999 14.0278C0.07721 14.8225 0.236161 15.6086 0.53 16.3522C0.774176 16.9926 1.16743 17.5716 1.68 18.0452C2.17693 18.5335 2.78168 18.9093 3.45 19.1452C4.22734 19.4263 5.04915 19.5783 5.88 19.5948C6.94 19.6522 7.28 19.6522 10 19.6522C12.72 19.6522 13.06 19.6522 14.12 19.5948C14.9508 19.5783 15.7727 19.4263 16.55 19.1452C17.2196 18.9116 17.8248 18.5355 18.32 18.0452C18.8322 17.5694 19.2283 16.9913 19.48 16.3522C19.7652 15.6066 19.9206 14.8214 19.94 14.0278C19.94 13.0139 20 12.6887 20 10.0869C20 7.48521 20 7.15999 19.94 6.14608ZM18.14 13.913C18.1327 14.5202 18.0178 15.1218 17.8 15.6922C17.6403 16.1084 17.3839 16.4846 17.05 16.7922C16.7256 17.1083 16.3332 17.3531 15.9 17.5096C15.3037 17.7178 14.6748 17.8278 14.04 17.8348C13.04 17.8826 12.67 17.8922 10.04 17.8922C7.41 17.8922 7.04 17.8922 6.04 17.8348C5.38089 17.8466 4.72459 17.7495 4.1 17.5478C3.68578 17.3834 3.31136 17.1392 3 16.8304C2.66809 16.5231 2.41484 16.1467 2.26 15.7304C2.01586 15.1519 1.88044 14.5366 1.86 13.913C1.86 12.9565 1.8 12.6026 1.8 10.0869C1.8 7.57129 1.8 7.21738 1.86 6.26086C1.86448 5.64013 1.98295 5.02498 2.21 4.44347C2.38605 4.03973 2.65626 3.67984 3 3.39129C3.30381 3.06241 3.67929 2.80121 4.1 2.62608C4.70955 2.41568 5.352 2.30572 6 2.30086C7 2.30086 7.37 2.24347 10 2.24347C12.63 2.24347 13 2.24347 14 2.30086C14.6348 2.30782 15.2637 2.41779 15.86 2.62608C16.3144 2.7874 16.7223 3.04967 17.05 3.39129C17.3777 3.68512 17.6338 4.04434 17.8 4.44347C18.0223 5.02593 18.1373 5.64082 18.14 6.26086C18.19 7.21738 18.2 7.57129 18.2 10.0869C18.2 12.6026 18.19 12.9565 18.14 13.913ZM10 5.17999C8.98581 5.18188 7.99496 5.47127 7.15265 6.01161C6.31035 6.55194 5.65438 7.31896 5.26763 8.21575C4.88089 9.11255 4.78072 10.0989 4.97979 11.0501C5.17886 12.0013 5.66824 12.8748 6.38608 13.5601C7.10392 14.2453 8.01801 14.7117 9.01286 14.9003C10.0077 15.0889 11.0387 14.9911 11.9755 14.6195C12.9123 14.2478 13.7129 13.6188 14.2761 12.8121C14.8394 12.0054 15.14 11.057 15.14 10.0869C15.1413 9.44139 15.0092 8.80196 14.7512 8.20543C14.4933 7.60889 14.1146 7.06702 13.6369 6.61099C13.1592 6.15496 12.5919 5.79377 11.9678 5.54818C11.3436 5.3026 10.6749 5.17747 10 5.17999ZM10 13.2722C9.34139 13.2722 8.69757 13.0854 8.14995 12.7354C7.60234 12.3854 7.17552 11.8879 6.92348 11.3059C6.67144 10.7239 6.6055 10.0834 6.73398 9.46554C6.86247 8.84767 7.17963 8.28012 7.64533 7.83466C8.11104 7.3892 8.70439 7.08583 9.35035 6.96293C9.99631 6.84003 10.6659 6.90311 11.2743 7.14419C11.8828 7.38527 12.4029 7.79353 12.7688 8.31733C13.1347 8.84114 13.33 9.45697 13.33 10.0869C13.33 10.5052 13.2439 10.9194 13.0765 11.3059C12.9092 11.6923 12.6639 12.0435 12.3547 12.3392C12.0454 12.635 11.6784 12.8696 11.2743 13.0297C10.8703 13.1898 10.4373 13.2722 10 13.2722Z" fill="#297DF9"/>
</svg>
