<svg width="11" height="8" viewBox="0 0 11 8" fill="none" xmlns="http://www.w3.org/2000/svg">
<path d="M10.7391 3.78261C10.7391 4.06957 10.4848 4.30435 10.1739 4.30435H1.92174L4.47935 6.67826C4.70543 6.88696 4.70543 7.21304 4.47935 7.42174C4.38043 7.51304 4.23913 7.56522 4.0837 7.56522C3.94239 7.56522 3.78696 7.51304 3.68804 7.4087L0.169565 4.14783C-0.0565217 3.93913 -0.0565217 3.61304 0.169565 3.41739L3.68804 0.156522C3.91413 -0.0521739 4.26739 -0.0521739 4.49348 0.156522C4.71956 0.365217 4.71956 0.691304 4.49348 0.9L1.92174 3.26087H10.1739C10.4848 3.26087 10.7391 3.49565 10.7391 3.78261Z" fill="white"/>
</svg>
