<svg width="30" height="35" viewBox="0 0 30 35" fill="none" xmlns="http://www.w3.org/2000/svg">
<path d="M13.609 6.0375L13.42 7.13945C13.3939 7.29264 13.411 7.4501 13.4694 7.59405C13.5279 7.738 13.6254 7.86271 13.7508 7.95408C13.8763 8.04545 14.0247 8.09984 14.1794 8.11111C14.3341 8.12239 14.4888 8.09009 14.6262 8.01787L15.614 7.49697L16.6018 8.01787C16.7213 8.08085 16.8542 8.11392 16.9893 8.11426C17.1103 8.11389 17.2298 8.08711 17.3394 8.03578C17.449 7.98445 17.5462 7.90979 17.6241 7.81701C17.702 7.72423 17.7588 7.61556 17.7906 7.49854C17.8223 7.38153 17.8282 7.25899 17.8079 7.13945L17.6189 6.0375L18.4185 5.25684C18.5296 5.14841 18.6082 5.01098 18.6454 4.8601C18.6826 4.70922 18.6769 4.55092 18.629 4.4031C18.5811 4.25529 18.4929 4.12386 18.3743 4.0237C18.2557 3.92353 18.1115 3.85863 17.958 3.83633L16.8528 3.67568L16.3589 2.67285C16.2903 2.53361 16.1841 2.41639 16.0525 2.33443C15.9208 2.25247 15.769 2.20903 15.614 2.20903C15.459 2.20903 15.3071 2.25247 15.1755 2.33443C15.0438 2.41639 14.9377 2.53361 14.869 2.67285L14.3751 3.67568L13.27 3.83633C13.1165 3.85863 12.9723 3.92353 12.8537 4.0237C12.7351 4.12386 12.6468 4.25529 12.5989 4.4031C12.551 4.55092 12.5453 4.70922 12.5825 4.8601C12.6198 5.01098 12.6984 5.14841 12.8095 5.25684L13.609 6.0375ZM14.6221 4.67578C14.7554 4.65637 14.8821 4.60471 14.9911 4.52527C15.1001 4.44583 15.1881 4.341 15.2476 4.21982L15.614 3.47607L15.9803 4.21982C16.0398 4.341 16.1279 4.44583 16.2369 4.52527C16.3458 4.60471 16.4725 4.65637 16.6059 4.67578L17.4245 4.79473L16.8317 5.37373C16.7352 5.46794 16.6631 5.58425 16.6215 5.71264C16.5799 5.84102 16.5701 5.97762 16.5929 6.11064L16.7328 6.93096L16.0001 6.54541C15.8808 6.48243 15.7481 6.44951 15.6133 6.44951C15.4785 6.44951 15.3457 6.48243 15.2265 6.54541L14.4938 6.93096L14.6303 6.11064C14.6531 5.97762 14.6433 5.84102 14.6017 5.71264C14.5601 5.58425 14.488 5.46794 14.3915 5.37373L13.7987 4.79473L14.6221 4.67578ZM6.47262 6.0375L6.28365 7.13945C6.25749 7.29264 6.27461 7.4501 6.33305 7.59405C6.3915 7.738 6.48896 7.86271 6.61442 7.95408C6.73987 8.04545 6.88833 8.09984 7.04301 8.11111C7.19769 8.12239 7.35244 8.09009 7.48977 8.01787L8.47758 7.49697L9.46539 8.01787C9.60253 8.09065 9.75735 8.12328 9.91213 8.11204C10.0669 8.1008 10.2154 8.04613 10.3406 7.9543C10.4666 7.86336 10.5645 7.73868 10.623 7.59456C10.6815 7.45044 10.6983 7.29271 10.6715 7.13945L10.4825 6.0375L11.2834 5.25684C11.3945 5.14841 11.4732 5.01098 11.5104 4.8601C11.5476 4.70922 11.5419 4.55092 11.494 4.4031C11.4461 4.25529 11.3578 4.12386 11.2392 4.0237C11.1206 3.92353 10.9764 3.85863 10.8229 3.83633L9.71848 3.67568L9.22458 2.67285C9.15655 2.5331 9.05057 2.4154 8.91879 2.3333C8.78701 2.25119 8.6348 2.208 8.47963 2.20869C8.32439 2.20812 8.17213 2.25134 8.04026 2.33343C7.9084 2.41552 7.80226 2.53314 7.73399 2.67285L7.24009 3.67568L6.13562 3.83633C5.98213 3.85863 5.83792 3.92353 5.71933 4.0237C5.60074 4.12386 5.51249 4.25529 5.46458 4.4031C5.41666 4.55092 5.41099 4.70922 5.4482 4.8601C5.48541 5.01098 5.56402 5.14841 5.67514 5.25684L6.47262 6.0375ZM7.48772 4.67578C7.62106 4.65626 7.74766 4.60455 7.85663 4.52513C7.96561 4.4457 8.05369 4.34093 8.11329 4.21982L8.47963 3.47607L8.84596 4.21982C8.90572 4.34134 8.9942 4.4464 9.1037 4.52586C9.21319 4.60532 9.3404 4.65679 9.47426 4.67578L10.2929 4.79473L9.70006 5.37373C9.60359 5.46794 9.53144 5.58425 9.48985 5.71264C9.44825 5.84102 9.43845 5.97762 9.4613 6.11064L9.60115 6.93096L8.86847 6.54541C8.74919 6.48254 8.61644 6.44969 8.48167 6.44969C8.3469 6.44969 8.21415 6.48254 8.09487 6.54541L7.35947 6.92822L7.49932 6.10791C7.52217 5.97488 7.51237 5.83828 7.47077 5.7099C7.42917 5.58152 7.35702 5.4652 7.26055 5.371L6.66773 4.79199L7.48772 4.67578ZM16.3385 22.0801H19.3319C19.558 22.0797 19.7746 21.9896 19.9345 21.8294C20.0943 21.6692 20.1843 21.4521 20.1846 21.2256V19.3799C20.1843 19.1534 20.0943 18.9362 19.9345 18.7761C19.7746 18.6159 19.558 18.5258 19.3319 18.5254H16.3385C16.1124 18.5258 15.8957 18.6159 15.7359 18.7761C15.576 18.9362 15.4861 19.1534 15.4857 19.3799V21.2256C15.4861 21.4521 15.576 21.6692 15.7359 21.8294C15.8957 21.9896 16.1124 22.0797 16.3385 22.0801ZM16.509 19.5508H19.1614V21.0547H16.509V19.5508ZM10.6681 22.0801H13.6615C13.8876 22.0797 14.1043 21.9896 14.2641 21.8294C14.424 21.6692 14.5139 21.4521 14.5143 21.2256V19.3799C14.5139 19.1534 14.424 18.9362 14.2641 18.7761C14.1043 18.6159 13.8876 18.5258 13.6615 18.5254H10.6681C10.442 18.5258 10.2254 18.6159 10.0655 18.7761C9.90567 18.9362 9.81571 19.1534 9.81535 19.3799V21.2256C9.81571 21.4521 9.90567 21.6692 10.0655 21.8294C10.2254 21.9896 10.442 22.0797 10.6681 22.0801ZM10.8386 19.5508H13.491V21.0547H10.8386V19.5508ZM27.1007 19.5508H24.1072C23.8812 19.5511 23.6645 19.6413 23.5047 19.8015C23.3448 19.9616 23.2549 20.1788 23.2545 20.4053V22.251C23.2549 22.4775 23.3448 22.6946 23.5047 22.8548C23.6645 23.015 23.8812 23.1051 24.1072 23.1055H27.1007C27.3267 23.1051 27.5434 23.015 27.7033 22.8548C27.8631 22.6946 27.9531 22.4775 27.9534 22.251V20.4053C27.9531 20.1788 27.8631 19.9616 27.7033 19.8015C27.5434 19.6413 27.3267 19.5511 27.1007 19.5508ZM26.9301 22.0801H24.2778V20.5762H26.9301V22.0801ZM20.7434 6.0375L20.5544 7.13945C20.5282 7.29264 20.5453 7.4501 20.6038 7.59405C20.6622 7.738 20.7597 7.86271 20.8852 7.95408C21.0106 8.04545 21.1591 8.09984 21.3137 8.11111C21.4684 8.12239 21.6232 8.09009 21.7605 8.01787L22.7483 7.49697L23.7361 8.01787C23.8556 8.08085 23.9886 8.11392 24.1236 8.11426C24.2446 8.11389 24.3641 8.08711 24.4737 8.03578C24.5834 7.98445 24.6805 7.90979 24.7584 7.81701C24.8363 7.72423 24.8932 7.61556 24.9249 7.49854C24.9566 7.38153 24.9626 7.25899 24.9422 7.13945L24.7553 6.0375L25.5528 5.25684C25.6639 5.14841 25.7425 5.01098 25.7797 4.8601C25.817 4.70922 25.8113 4.55092 25.7634 4.4031C25.7154 4.25529 25.6272 4.12386 25.5086 4.0237C25.39 3.92353 25.2458 3.85863 25.0923 3.83633L23.9879 3.67568L23.494 2.67285C23.4254 2.53343 23.3192 2.41603 23.1875 2.33394C23.0558 2.25185 22.9038 2.20834 22.7487 2.20834C22.5935 2.20834 22.4415 2.25185 22.3098 2.33394C22.1781 2.41603 22.0719 2.53343 22.0034 2.67285L21.5095 3.67568L20.405 3.83633C20.2514 3.85852 20.1072 3.92335 19.9885 4.02347C19.8698 4.12359 19.7815 4.25501 19.7335 4.40284C19.6855 4.55067 19.6797 4.70902 19.7169 4.85995C19.7541 5.01088 19.8327 5.14836 19.9438 5.25684L20.7434 6.0375ZM21.7537 4.67578C21.8871 4.65637 22.0137 4.60471 22.1227 4.52527C22.2317 4.44583 22.3197 4.341 22.3793 4.21982L22.7456 3.47607L23.1181 4.21982C23.1777 4.34093 23.2657 4.4457 23.3747 4.52513C23.4837 4.60455 23.6103 4.65626 23.7436 4.67578L24.5623 4.79473L23.9694 5.37373C23.873 5.46794 23.8008 5.58425 23.7592 5.71264C23.7176 5.84102 23.7078 5.97762 23.7307 6.11064L23.8705 6.93096L23.1378 6.54541C23.0186 6.48243 22.8858 6.44951 22.751 6.44951C22.6163 6.44951 22.4835 6.48243 22.3642 6.54541L21.6316 6.93096L21.7714 6.11406C21.7943 5.98093 21.7846 5.84421 21.743 5.71571C21.7014 5.58721 21.6292 5.47078 21.5327 5.37646L20.9351 4.79473L21.7537 4.67578ZM28.4651 17.5H28.3709V16.5771C28.3706 16.2781 28.2519 15.9914 28.0408 15.78C27.8298 15.5685 27.5437 15.4496 27.2453 15.4492H22.3335C22.2716 15.4498 22.2098 15.4553 22.1487 15.4656C22.0451 15.162 21.8494 14.8984 21.589 14.7116C21.3286 14.5248 21.0165 14.4242 20.6963 14.4238H20.1887V13.5393C20.1884 13.2402 20.0697 12.9535 19.8587 12.7421C19.6476 12.5306 19.3615 12.4117 19.0631 12.4113H10.941C10.6425 12.4117 10.3565 12.5306 10.1454 12.7421C9.93442 12.9535 9.81571 13.2402 9.81535 13.5393V14.4238H9.30371C8.98349 14.4242 8.67138 14.5248 8.411 14.7116C8.15061 14.8984 7.95494 15.162 7.85133 15.4656C7.79023 15.4553 7.72841 15.4498 7.66645 15.4492H2.75468C2.45626 15.4496 2.17017 15.5685 1.95915 15.78C1.74814 15.9914 1.62943 16.2781 1.62907 16.5771V17.5H1.53493C1.12795 17.5004 0.737746 17.6625 0.449969 17.9509C0.162193 18.2393 0.000361276 18.6303 0 19.0381V34.4873C0 34.6233 0.0539052 34.7537 0.149857 34.8498C0.245808 34.946 0.375947 35 0.511643 35H29.4884C29.6241 35 29.7542 34.946 29.8501 34.8498C29.9461 34.7537 30 34.6233 30 34.4873V19.0381C29.9996 18.6303 29.8378 18.2393 29.55 17.9509C29.2623 17.6625 28.872 17.5004 28.4651 17.5ZM5.41727 33.9746H3.3748V29.668H5.41727V33.9746ZM7.76878 33.9746H6.44056V29.6365C6.44083 29.506 6.41538 29.3767 6.36567 29.256C6.31596 29.1353 6.24297 29.0257 6.15088 28.9333C6.05879 28.841 5.94942 28.7678 5.82903 28.7179C5.70864 28.668 5.57961 28.6424 5.44934 28.6426H3.34069C3.07845 28.6429 2.82706 28.7475 2.64163 28.9333C2.4562 29.1191 2.35187 29.371 2.35151 29.6338V33.9746H1.02329V19.0381C1.02347 18.9022 1.07743 18.7719 1.17334 18.6758C1.26925 18.5796 1.39929 18.5256 1.53493 18.5254H7.76878V33.9746ZM7.76878 17.5H2.65236V16.5771C2.65236 16.55 2.66314 16.5239 2.68233 16.5046C2.70152 16.4854 2.72755 16.4746 2.75468 16.4746H7.66645C7.69359 16.4746 7.71962 16.4854 7.73881 16.5046C7.758 16.5239 7.76878 16.55 7.76878 16.5771V17.5ZM10.8386 13.5393C10.8386 13.5121 10.8494 13.486 10.8686 13.4668C10.8878 13.4475 10.9138 13.4367 10.941 13.4367H19.0631C19.0903 13.4367 19.1163 13.4475 19.1355 13.4668C19.1547 13.486 19.1655 13.5121 19.1655 13.5393V14.4238H10.8386V13.5393ZM16.5329 33.9746H13.4671V28.6426H16.5329V33.9746ZM21.2079 33.9746H17.5562V28.6111C17.5565 28.3482 17.4528 28.0959 17.2677 27.9096C17.0827 27.7233 16.8314 27.6181 16.569 27.6172H13.431C13.1687 27.6175 12.9173 27.7221 12.7319 27.9079C12.5465 28.0937 12.4421 28.3456 12.4418 28.6084V33.9746H8.79207V17.5H21.2079V33.9746ZM21.2079 16.4746H8.79207V15.9619C8.79207 15.8259 8.84597 15.6955 8.94193 15.5994C9.03788 15.5032 9.16802 15.4492 9.30371 15.4492H20.6963C20.832 15.4492 20.9621 15.5032 21.0581 15.5994C21.154 15.6955 21.2079 15.8259 21.2079 15.9619V16.4746ZM22.2312 16.5771C22.2312 16.55 22.242 16.5239 22.2612 16.5046C22.2804 16.4854 22.3064 16.4746 22.3335 16.4746H27.2453C27.2725 16.4746 27.2985 16.4854 27.3177 16.5046C27.3369 16.5239 27.3476 16.55 27.3476 16.5771V17.5H22.2312V16.5771ZM26.6252 33.9746H24.5827V29.668H26.6252V33.9746ZM28.9767 33.9746H27.6485V29.6365C27.6481 29.3737 27.5438 29.1218 27.3584 28.936C27.1729 28.7502 26.9215 28.6457 26.6593 28.6453H24.5507C24.2884 28.6455 24.0369 28.75 23.8514 28.9358C23.6659 29.1217 23.5617 29.3737 23.5615 29.6365V33.9746H22.2312V18.5254H28.4651C28.6007 18.5256 28.7307 18.5796 28.8267 18.6758C28.9226 18.7719 28.9765 18.9022 28.9767 19.0381V33.9746ZM2.89931 27.6855H5.89276C6.11881 27.6852 6.3355 27.595 6.49534 27.4349C6.65518 27.2747 6.74514 27.0576 6.7455 26.8311V24.9854C6.74514 24.7588 6.65518 24.5417 6.49534 24.3815C6.3355 24.2214 6.11881 24.1312 5.89276 24.1309H2.89931C2.67326 24.1312 2.45657 24.2214 2.29673 24.3815C2.13689 24.5417 2.04693 24.7588 2.04657 24.9854V26.8311C2.04693 27.0576 2.13689 27.2747 2.29673 27.4349C2.45657 27.595 2.67326 27.6852 2.89931 27.6855ZM3.06986 25.1562H5.72221V26.6602H3.06986V25.1562ZM5.61988 10.3223H13.4112C13.4157 10.3222 13.4201 10.3231 13.4242 10.3249C13.4283 10.3266 13.432 10.3292 13.4351 10.3325L14.8677 11.7681C15.066 11.9668 15.3349 12.0784 15.6153 12.0784C15.8958 12.0784 16.1647 11.9668 16.363 11.7681L17.7956 10.3325C17.7987 10.3292 17.8024 10.3266 17.8065 10.3249C17.8106 10.3231 17.815 10.3222 17.8195 10.3223H25.6081C26.2863 10.3215 26.9366 10.0512 27.4162 9.57064C27.8958 9.09005 28.1656 8.43844 28.1663 7.75879V2.56348C28.1656 1.88382 27.8958 1.23221 27.4162 0.751624C26.9366 0.271036 26.2863 0.000723807 25.6081 0L5.61988 0C4.94163 0.000723807 4.29135 0.271036 3.81175 0.751624C3.33215 1.23221 3.06239 1.88382 3.06167 2.56348V7.75879C3.06239 8.43844 3.33215 9.09005 3.81175 9.57064C4.29135 10.0512 4.94163 10.3215 5.61988 10.3223ZM4.08496 2.56348C4.08532 2.15566 4.24715 1.76465 4.53492 1.47629C4.8227 1.18792 5.21291 1.02575 5.61988 1.02539H25.6081C26.015 1.02575 26.4052 1.18792 26.693 1.47629C26.9808 1.76465 27.1426 2.15566 27.143 2.56348V7.75879C27.1426 8.1666 26.9808 8.55761 26.693 8.84598C26.4052 9.13435 26.015 9.29651 25.6081 9.29688H17.8168C17.6774 9.2961 17.5393 9.32315 17.4104 9.37643C17.2816 9.42972 17.1646 9.50817 17.0664 9.60723L15.6338 11.0428C15.6307 11.046 15.627 11.0486 15.6229 11.0504C15.6188 11.0522 15.6144 11.0531 15.6099 11.0531C15.6054 11.0531 15.601 11.0522 15.5969 11.0504C15.5928 11.0486 15.5891 11.046 15.586 11.0428L14.1534 9.60723C14.0551 9.50817 13.9382 9.42972 13.8093 9.37643C13.6805 9.32315 13.5424 9.2961 13.403 9.29688H5.61988C5.21291 9.29651 4.8227 9.13435 4.53492 8.84598C4.24715 8.55761 4.08532 8.1666 4.08496 7.75879V2.56348ZM10.6681 26.6602H13.6615C13.8876 26.6598 14.1043 26.5697 14.2641 26.4095C14.424 26.2493 14.5139 26.0322 14.5143 25.8057V23.96C14.5139 23.7334 14.424 23.5163 14.2641 23.3561C14.1043 23.196 13.8876 23.1058 13.6615 23.1055H10.6681C10.442 23.1058 10.2254 23.196 10.0655 23.3561C9.90567 23.5163 9.81571 23.7334 9.81535 23.96V25.8057C9.81571 26.0322 9.90567 26.2493 10.0655 26.4095C10.2254 26.5697 10.442 26.6598 10.6681 26.6602ZM10.8386 24.1309H13.491V25.6348H10.8386V24.1309ZM2.89931 23.1055H5.89276C6.11881 23.1051 6.3355 23.015 6.49534 22.8548C6.65518 22.6946 6.74514 22.4775 6.7455 22.251V20.4053C6.74514 20.1788 6.65518 19.9616 6.49534 19.8015C6.3355 19.6413 6.11881 19.5511 5.89276 19.5508H2.89931C2.67326 19.5511 2.45657 19.6413 2.29673 19.8015C2.13689 19.9616 2.04693 20.1788 2.04657 20.4053V22.251C2.04693 22.4775 2.13689 22.6946 2.29673 22.8548C2.45657 23.015 2.67326 23.1051 2.89931 23.1055ZM3.06986 20.5762H5.72221V22.0801H3.06986V20.5762ZM16.3385 26.6602H19.3319C19.558 26.6598 19.7746 26.5697 19.9345 26.4095C20.0943 26.2493 20.1843 26.0322 20.1846 25.8057V23.96C20.1843 23.7334 20.0943 23.5163 19.9345 23.3561C19.7746 23.196 19.558 23.1058 19.3319 23.1055H16.3385C16.1124 23.1058 15.8957 23.196 15.7359 23.3561C15.576 23.5163 15.4861 23.7334 15.4857 23.96V25.8057C15.4861 26.0322 15.576 26.2493 15.7359 26.4095C15.8957 26.5697 16.1124 26.6598 16.3385 26.6602ZM16.509 24.1309H19.1614V25.6348H16.509V24.1309ZM27.1007 24.1309H24.1072C23.8812 24.1312 23.6645 24.2214 23.5047 24.3815C23.3448 24.5417 23.2549 24.7588 23.2545 24.9854V26.8311C23.2549 27.0576 23.3448 27.2747 23.5047 27.4349C23.6645 27.595 23.8812 27.6852 24.1072 27.6855H27.1007C27.3267 27.6852 27.5434 27.595 27.7033 27.4349C27.8631 27.2747 27.9531 27.0576 27.9534 26.8311V24.9854C27.9531 24.7588 27.8631 24.5417 27.7033 24.3815C27.5434 24.2214 27.3267 24.1312 27.1007 24.1309ZM26.9301 26.6602H24.2778V25.1562H26.9301V26.6602Z" fill="#44D9FF"/>
</svg>
