<svg width="16" height="14" viewBox="0 0 16 14" fill="none" xmlns="http://www.w3.org/2000/svg">
<path d="M11.862 5.7931V4.34483C11.862 3.44858 11.4551 2.58904 10.7308 1.95529C10.0066 1.32155 9.02423 0.965515 7.99994 0.965515C6.97566 0.965515 5.99332 1.32155 5.26905 1.95529C4.54477 2.58904 4.13787 3.44858 4.13787 4.34483V5.7931C3.84522 5.7931 3.56455 5.89483 3.35762 6.07589C3.15068 6.25696 3.03442 6.50255 3.03442 6.75862V12.069C3.03442 12.325 3.15068 12.5706 3.35762 12.7517C3.56455 12.9328 3.84522 13.0345 4.13787 13.0345H11.862C12.1547 13.0345 12.4353 12.9328 12.6423 12.7517C12.8492 12.5706 12.9655 12.325 12.9655 12.069V6.75862C12.9655 6.50255 12.8492 6.25696 12.6423 6.07589C12.4353 5.89483 12.1547 5.7931 11.862 5.7931ZM10.7586 5.7931H5.24132V4.34483C5.24132 3.70465 5.53196 3.09069 6.0493 2.63802C6.56664 2.18534 7.26831 1.93103 7.99994 1.93103C8.73157 1.93103 9.43324 2.18534 9.95058 2.63802C10.4679 3.09069 10.7586 3.70465 10.7586 4.34483V5.7931Z" fill="#297DF9"/>
</svg>
