<svg width="149" height="32" viewBox="0 0 149 32" fill="none" xmlns="http://www.w3.org/2000/svg">
<path d="M28.89 21.04C28.9967 21.04 29.09 21.0833 29.17 21.17L29.94 22C29.3533 22.68 28.64 23.21 27.8 23.59C26.9667 23.97 25.9567 24.16 24.77 24.16C23.7433 24.16 22.81 23.9833 21.97 23.63C21.13 23.27 20.4133 22.77 19.82 22.13C19.2267 21.4833 18.7667 20.71 18.44 19.81C18.1133 18.91 17.95 17.92 17.95 16.84C17.95 15.76 18.12 14.77 18.46 13.87C18.8 12.97 19.2767 12.1967 19.89 11.55C20.51 10.9033 21.25 10.4033 22.11 10.05C22.97 9.69 23.92 9.51 24.96 9.51C25.98 9.51 26.88 9.67333 27.66 10C28.44 10.3267 29.1267 10.77 29.72 11.33L29.08 12.22C29.04 12.2867 28.9867 12.3433 28.92 12.39C28.86 12.43 28.7767 12.45 28.67 12.45C28.55 12.45 28.4033 12.3867 28.23 12.26C28.0567 12.1267 27.83 11.98 27.55 11.82C27.27 11.66 26.92 11.5167 26.5 11.39C26.08 11.2567 25.5633 11.19 24.95 11.19C24.21 11.19 23.5333 11.32 22.92 11.58C22.3067 11.8333 21.7767 12.2033 21.33 12.69C20.89 13.1767 20.5467 13.77 20.3 14.47C20.0533 15.17 19.93 15.96 19.93 16.84C19.93 17.7333 20.0567 18.53 20.31 19.23C20.57 19.93 20.92 20.5233 21.36 21.01C21.8067 21.49 22.33 21.8567 22.93 22.11C23.5367 22.3633 24.19 22.49 24.89 22.49C25.3167 22.49 25.7 22.4667 26.04 22.42C26.3867 22.3667 26.7033 22.2867 26.99 22.18C27.2833 22.0733 27.5533 21.94 27.8 21.78C28.0533 21.6133 28.3033 21.4167 28.55 21.19C28.6633 21.09 28.7767 21.04 28.89 21.04ZM45.1559 16.84C45.1559 17.9133 44.9859 18.9 44.6459 19.8C44.3059 20.6933 43.8259 21.4633 43.2059 22.11C42.5859 22.7567 41.8393 23.26 40.9659 23.62C40.0993 23.9733 39.1393 24.15 38.0859 24.15C37.0326 24.15 36.0726 23.9733 35.2059 23.62C34.3393 23.26 33.5959 22.7567 32.9759 22.11C32.3559 21.4633 31.8759 20.6933 31.5359 19.8C31.1959 18.9 31.0259 17.9133 31.0259 16.84C31.0259 15.7667 31.1959 14.7833 31.5359 13.89C31.8759 12.99 32.3559 12.2167 32.9759 11.57C33.5959 10.9167 34.3393 10.41 35.2059 10.05C36.0726 9.69 37.0326 9.51 38.0859 9.51C39.1393 9.51 40.0993 9.69 40.9659 10.05C41.8393 10.41 42.5859 10.9167 43.2059 11.57C43.8259 12.2167 44.3059 12.99 44.6459 13.89C44.9859 14.7833 45.1559 15.7667 45.1559 16.84ZM43.1659 16.84C43.1659 15.96 43.0459 15.17 42.8059 14.47C42.5659 13.77 42.2259 13.18 41.7859 12.7C41.3459 12.2133 40.8126 11.84 40.1859 11.58C39.5593 11.32 38.8593 11.19 38.0859 11.19C37.3193 11.19 36.6226 11.32 35.9959 11.58C35.3693 11.84 34.8326 12.2133 34.3859 12.7C33.9459 13.18 33.6059 13.77 33.3659 14.47C33.1259 15.17 33.0059 15.96 33.0059 16.84C33.0059 17.72 33.1259 18.51 33.3659 19.21C33.6059 19.9033 33.9459 20.4933 34.3859 20.98C34.8326 21.46 35.3693 21.83 35.9959 22.09C36.6226 22.3433 37.3193 22.47 38.0859 22.47C38.8593 22.47 39.5593 22.3433 40.1859 22.09C40.8126 21.83 41.3459 21.46 41.7859 20.98C42.2259 20.4933 42.5659 19.9033 42.8059 19.21C43.0459 18.51 43.1659 17.72 43.1659 16.84ZM49.8716 11.25V16.26H55.7616V17.84H49.8716V24H47.9316V9.67H56.7616V11.25H49.8716ZM61.1802 11.25V16.26H67.0702V17.84H61.1802V24H59.2402V9.67H68.0702V11.25H61.1802ZM79.3888 22.42L79.3788 24H70.5488V9.67H79.3788V11.25H72.4888V16.01H78.0688V17.53H72.4888V22.42H79.3888ZM93.7017 9.67V24H91.7617V17.48H84.0317V24H82.0917V9.67H84.0317V16.06H91.7617V9.67H93.7017ZM110.605 16.84C110.605 17.9133 110.435 18.9 110.095 19.8C109.755 20.6933 109.275 21.4633 108.655 22.11C108.035 22.7567 107.288 23.26 106.415 23.62C105.548 23.9733 104.588 24.15 103.535 24.15C102.482 24.15 101.522 23.9733 100.655 23.62C99.7885 23.26 99.0452 22.7567 98.4252 22.11C97.8052 21.4633 97.3252 20.6933 96.9852 19.8C96.6452 18.9 96.4752 17.9133 96.4752 16.84C96.4752 15.7667 96.6452 14.7833 96.9852 13.89C97.3252 12.99 97.8052 12.2167 98.4252 11.57C99.0452 10.9167 99.7885 10.41 100.655 10.05C101.522 9.69 102.482 9.51 103.535 9.51C104.588 9.51 105.548 9.69 106.415 10.05C107.288 10.41 108.035 10.9167 108.655 11.57C109.275 12.2167 109.755 12.99 110.095 13.89C110.435 14.7833 110.605 15.7667 110.605 16.84ZM108.615 16.84C108.615 15.96 108.495 15.17 108.255 14.47C108.015 13.77 107.675 13.18 107.235 12.7C106.795 12.2133 106.262 11.84 105.635 11.58C105.008 11.32 104.308 11.19 103.535 11.19C102.768 11.19 102.072 11.32 101.445 11.58C100.818 11.84 100.282 12.2133 99.8352 12.7C99.3952 13.18 99.0552 13.77 98.8152 14.47C98.5752 15.17 98.4552 15.96 98.4552 16.84C98.4552 17.72 98.5752 18.51 98.8152 19.21C99.0552 19.9033 99.3952 20.4933 99.8352 20.98C100.282 21.46 100.818 21.83 101.445 22.09C102.072 22.3433 102.768 22.47 103.535 22.47C104.308 22.47 105.008 22.3433 105.635 22.09C106.262 21.83 106.795 21.46 107.235 20.98C107.675 20.4933 108.015 19.9033 108.255 19.21C108.495 18.51 108.615 17.72 108.615 16.84ZM118.911 22.46C119.504 22.46 120.034 22.36 120.501 22.16C120.967 21.96 121.361 21.68 121.681 21.32C122.007 20.96 122.254 20.53 122.421 20.03C122.594 19.53 122.681 18.98 122.681 18.38V9.67H124.611V18.38C124.611 19.2067 124.477 19.9733 124.211 20.68C123.951 21.3867 123.574 22 123.081 22.52C122.594 23.0333 121.997 23.4367 121.291 23.73C120.584 24.0233 119.791 24.17 118.911 24.17C118.031 24.17 117.237 24.0233 116.531 23.73C115.824 23.4367 115.224 23.0333 114.731 22.52C114.237 22 113.857 21.3867 113.591 20.68C113.331 19.9733 113.201 19.2067 113.201 18.38V9.67H115.131V18.37C115.131 18.97 115.214 19.52 115.381 20.02C115.554 20.52 115.801 20.95 116.121 21.31C116.447 21.67 116.844 21.9533 117.311 22.16C117.784 22.36 118.317 22.46 118.911 22.46ZM135.418 11.91C135.358 12.01 135.291 12.0867 135.218 12.14C135.151 12.1867 135.068 12.21 134.968 12.21C134.854 12.21 134.721 12.1533 134.568 12.04C134.414 11.9267 134.221 11.8033 133.988 11.67C133.761 11.53 133.484 11.4033 133.158 11.29C132.838 11.1767 132.448 11.12 131.988 11.12C131.554 11.12 131.171 11.18 130.838 11.3C130.511 11.4133 130.234 11.57 130.008 11.77C129.788 11.97 129.621 12.2067 129.508 12.48C129.394 12.7467 129.338 13.0367 129.338 13.35C129.338 13.75 129.434 14.0833 129.628 14.35C129.828 14.61 130.088 14.8333 130.408 15.02C130.734 15.2067 131.101 15.37 131.508 15.51C131.921 15.6433 132.341 15.7833 132.768 15.93C133.201 16.0767 133.621 16.2433 134.028 16.43C134.441 16.61 134.808 16.84 135.128 17.12C135.454 17.4 135.714 17.7433 135.908 18.15C136.108 18.5567 136.208 19.0567 136.208 19.65C136.208 20.2767 136.101 20.8667 135.888 21.42C135.674 21.9667 135.361 22.4433 134.948 22.85C134.541 23.2567 134.038 23.5767 133.438 23.81C132.844 24.0433 132.168 24.16 131.408 24.16C130.474 24.16 129.628 23.9933 128.868 23.66C128.108 23.32 127.458 22.8633 126.918 22.29L127.478 21.37C127.531 21.2967 127.594 21.2367 127.668 21.19C127.748 21.1367 127.834 21.11 127.928 21.11C128.014 21.11 128.111 21.1467 128.218 21.22C128.331 21.2867 128.458 21.3733 128.598 21.48C128.738 21.5867 128.898 21.7033 129.078 21.83C129.258 21.9567 129.461 22.0733 129.688 22.18C129.921 22.2867 130.184 22.3767 130.478 22.45C130.771 22.5167 131.101 22.55 131.468 22.55C131.928 22.55 132.338 22.4867 132.698 22.36C133.058 22.2333 133.361 22.0567 133.608 21.83C133.861 21.5967 134.054 21.32 134.188 21C134.321 20.68 134.388 20.3233 134.388 19.93C134.388 19.4967 134.288 19.1433 134.088 18.87C133.894 18.59 133.638 18.3567 133.318 18.17C132.998 17.9833 132.631 17.8267 132.218 17.7C131.804 17.5667 131.384 17.4333 130.958 17.3C130.531 17.16 130.111 17 129.698 16.82C129.284 16.64 128.918 16.4067 128.598 16.12C128.278 15.8333 128.018 15.4767 127.818 15.05C127.624 14.6167 127.528 14.0833 127.528 13.45C127.528 12.9433 127.624 12.4533 127.818 11.98C128.018 11.5067 128.304 11.0867 128.678 10.72C129.058 10.3533 129.521 10.06 130.068 9.84C130.621 9.62 131.254 9.51 131.968 9.51C132.768 9.51 133.494 9.63667 134.148 9.89C134.808 10.1433 135.388 10.51 135.888 10.99L135.418 11.91ZM147.787 22.42L147.777 24H138.947V9.67H147.777V11.25H140.887V16.01H146.467V17.53H140.887V22.42H147.787Z" fill="white"/>
<rect x="6" y="10" width="10" height="10" fill="#5B51FF"/>
<rect y="16" width="10" height="10" fill="#44D9FF"/>
</svg>
