<svg width="119" height="32" viewBox="0 0 119 32" fill="none" xmlns="http://www.w3.org/2000/svg">
<path d="M26.16 11.91C26.1 12.01 26.0333 12.0867 25.96 12.14C25.8933 12.1867 25.81 12.21 25.71 12.21C25.5967 12.21 25.4633 12.1533 25.31 12.04C25.1567 11.9267 24.9633 11.8033 24.73 11.67C24.5033 11.53 24.2267 11.4033 23.9 11.29C23.58 11.1767 23.19 11.12 22.73 11.12C22.2967 11.12 21.9133 11.18 21.58 11.3C21.2533 11.4133 20.9767 11.57 20.75 11.77C20.53 11.97 20.3633 12.2067 20.25 12.48C20.1367 12.7467 20.08 13.0367 20.08 13.35C20.08 13.75 20.1767 14.0833 20.37 14.35C20.57 14.61 20.83 14.8333 21.15 15.02C21.4767 15.2067 21.8433 15.37 22.25 15.51C22.6633 15.6433 23.0833 15.7833 23.51 15.93C23.9433 16.0767 24.3633 16.2433 24.77 16.43C25.1833 16.61 25.55 16.84 25.87 17.12C26.1967 17.4 26.4567 17.7433 26.65 18.15C26.85 18.5567 26.95 19.0567 26.95 19.65C26.95 20.2767 26.8433 20.8667 26.63 21.42C26.4167 21.9667 26.1033 22.4433 25.69 22.85C25.2833 23.2567 24.78 23.5767 24.18 23.81C23.5867 24.0433 22.91 24.16 22.15 24.16C21.2167 24.16 20.37 23.9933 19.61 23.66C18.85 23.32 18.2 22.8633 17.66 22.29L18.22 21.37C18.2733 21.2967 18.3367 21.2367 18.41 21.19C18.49 21.1367 18.5767 21.11 18.67 21.11C18.7567 21.11 18.8533 21.1467 18.96 21.22C19.0733 21.2867 19.2 21.3733 19.34 21.48C19.48 21.5867 19.64 21.7033 19.82 21.83C20 21.9567 20.2033 22.0733 20.43 22.18C20.6633 22.2867 20.9267 22.3767 21.22 22.45C21.5133 22.5167 21.8433 22.55 22.21 22.55C22.67 22.55 23.08 22.4867 23.44 22.36C23.8 22.2333 24.1033 22.0567 24.35 21.83C24.6033 21.5967 24.7967 21.32 24.93 21C25.0633 20.68 25.13 20.3233 25.13 19.93C25.13 19.4967 25.03 19.1433 24.83 18.87C24.6367 18.59 24.38 18.3567 24.06 18.17C23.74 17.9833 23.3733 17.8267 22.96 17.7C22.5467 17.5667 22.1267 17.4333 21.7 17.3C21.2733 17.16 20.8533 17 20.44 16.82C20.0267 16.64 19.66 16.4067 19.34 16.12C19.02 15.8333 18.76 15.4767 18.56 15.05C18.3667 14.6167 18.27 14.0833 18.27 13.45C18.27 12.9433 18.3667 12.4533 18.56 11.98C18.76 11.5067 19.0467 11.0867 19.42 10.72C19.8 10.3533 20.2633 10.06 20.81 9.84C21.3633 9.62 21.9967 9.51 22.71 9.51C23.51 9.51 24.2367 9.63667 24.89 9.89C25.55 10.1433 26.13 10.51 26.63 10.99L26.16 11.91ZM38.5294 22.42L38.5194 24H29.6894V9.67H38.5194V11.25H31.6294V16.01H37.2094V17.53H31.6294V22.42H38.5294ZM49.3623 22.37V24H41.2323V9.67H43.1623V22.37H49.3623ZM59.6358 22.37V24H51.5058V9.67H53.4358V22.37H59.6358ZM66.8092 22.46C67.3626 22.46 67.8392 22.3967 68.2392 22.27C68.6392 22.1433 68.9659 21.9667 69.2192 21.74C69.4792 21.5067 69.6692 21.2333 69.7892 20.92C69.9092 20.6 69.9692 20.25 69.9692 19.87C69.9692 19.13 69.7059 18.5467 69.1792 18.12C68.6526 17.6867 67.8626 17.47 66.8092 17.47H63.7092V22.46H66.8092ZM63.7092 11.2V16.09H66.2692C66.8159 16.09 67.2892 16.03 67.6892 15.91C68.0959 15.79 68.4292 15.6233 68.6892 15.41C68.9559 15.1967 69.1526 14.94 69.2792 14.64C69.4059 14.3333 69.4692 14 69.4692 13.64C69.4692 12.7933 69.2159 12.1767 68.7092 11.79C68.2026 11.3967 67.4159 11.2 66.3492 11.2H63.7092ZM66.3492 9.67C67.2292 9.67 67.9859 9.75667 68.6192 9.93C69.2592 10.1033 69.7826 10.35 70.1892 10.67C70.6026 10.99 70.9059 11.3833 71.0992 11.85C71.2926 12.31 71.3892 12.83 71.3892 13.41C71.3892 13.7633 71.3326 14.1033 71.2192 14.43C71.1126 14.75 70.9492 15.05 70.7292 15.33C70.5092 15.61 70.2292 15.8633 69.8892 16.09C69.5559 16.31 69.1626 16.49 68.7092 16.63C69.7626 16.83 70.5526 17.2067 71.0792 17.76C71.6126 18.3067 71.8792 19.0267 71.8792 19.92C71.8792 20.5267 71.7659 21.08 71.5392 21.58C71.3192 22.08 70.9926 22.51 70.5592 22.87C70.1326 23.23 69.6059 23.51 68.9792 23.71C68.3526 23.9033 67.6392 24 66.8392 24H61.7792V9.67H66.3492ZM87.9489 16.84C87.9489 17.9133 87.7789 18.9 87.4389 19.8C87.0989 20.6933 86.6189 21.4633 85.9989 22.11C85.3789 22.7567 84.6322 23.26 83.7589 23.62C82.8922 23.9733 81.9322 24.15 80.8789 24.15C79.8256 24.15 78.8656 23.9733 77.9989 23.62C77.1322 23.26 76.3889 22.7567 75.7689 22.11C75.1489 21.4633 74.6689 20.6933 74.3289 19.8C73.9889 18.9 73.8189 17.9133 73.8189 16.84C73.8189 15.7667 73.9889 14.7833 74.3289 13.89C74.6689 12.99 75.1489 12.2167 75.7689 11.57C76.3889 10.9167 77.1322 10.41 77.9989 10.05C78.8656 9.69 79.8256 9.51 80.8789 9.51C81.9322 9.51 82.8922 9.69 83.7589 10.05C84.6322 10.41 85.3789 10.9167 85.9989 11.57C86.6189 12.2167 87.0989 12.99 87.4389 13.89C87.7789 14.7833 87.9489 15.7667 87.9489 16.84ZM85.9589 16.84C85.9589 15.96 85.8389 15.17 85.5989 14.47C85.3589 13.77 85.0189 13.18 84.5789 12.7C84.1389 12.2133 83.6056 11.84 82.9789 11.58C82.3522 11.32 81.6522 11.19 80.8789 11.19C80.1122 11.19 79.4156 11.32 78.7889 11.58C78.1622 11.84 77.6256 12.2133 77.1789 12.7C76.7389 13.18 76.3989 13.77 76.1589 14.47C75.9189 15.17 75.7989 15.96 75.7989 16.84C75.7989 17.72 75.9189 18.51 76.1589 19.21C76.3989 19.9033 76.7389 20.4933 77.1789 20.98C77.6256 21.46 78.1622 21.83 78.7889 22.09C79.4156 22.3433 80.1122 22.47 80.8789 22.47C81.6522 22.47 82.3522 22.3433 82.9789 22.09C83.6056 21.83 84.1389 21.46 84.5789 20.98C85.0189 20.4933 85.3589 19.9033 85.5989 19.21C85.8389 18.51 85.9589 17.72 85.9589 16.84ZM103.965 16.84C103.965 17.9133 103.795 18.9 103.455 19.8C103.115 20.6933 102.635 21.4633 102.015 22.11C101.395 22.7567 100.648 23.26 99.7745 23.62C98.9079 23.9733 97.9479 24.15 96.8945 24.15C95.8412 24.15 94.8812 23.9733 94.0145 23.62C93.1479 23.26 92.4045 22.7567 91.7845 22.11C91.1645 21.4633 90.6845 20.6933 90.3445 19.8C90.0045 18.9 89.8345 17.9133 89.8345 16.84C89.8345 15.7667 90.0045 14.7833 90.3445 13.89C90.6845 12.99 91.1645 12.2167 91.7845 11.57C92.4045 10.9167 93.1479 10.41 94.0145 10.05C94.8812 9.69 95.8412 9.51 96.8945 9.51C97.9479 9.51 98.9079 9.69 99.7745 10.05C100.648 10.41 101.395 10.9167 102.015 11.57C102.635 12.2167 103.115 12.99 103.455 13.89C103.795 14.7833 103.965 15.7667 103.965 16.84ZM101.975 16.84C101.975 15.96 101.855 15.17 101.615 14.47C101.375 13.77 101.035 13.18 100.595 12.7C100.155 12.2133 99.6212 11.84 98.9945 11.58C98.3679 11.32 97.6679 11.19 96.8945 11.19C96.1279 11.19 95.4312 11.32 94.8045 11.58C94.1779 11.84 93.6412 12.2133 93.1945 12.7C92.7545 13.18 92.4145 13.77 92.1745 14.47C91.9345 15.17 91.8145 15.96 91.8145 16.84C91.8145 17.72 91.9345 18.51 92.1745 19.21C92.4145 19.9033 92.7545 20.4933 93.1945 20.98C93.6412 21.46 94.1779 21.83 94.8045 22.09C95.4312 22.3433 96.1279 22.47 96.8945 22.47C97.6679 22.47 98.3679 22.3433 98.9945 22.09C99.6212 21.83 100.155 21.46 100.595 20.98C101.035 20.4933 101.375 19.9033 101.615 19.21C101.855 18.51 101.975 17.72 101.975 16.84ZM108.67 15.95H109.4C109.653 15.95 109.857 15.92 110.01 15.86C110.163 15.7933 110.303 15.6833 110.43 15.53L115.2 10.13C115.333 9.95667 115.473 9.83667 115.62 9.77C115.767 9.70333 115.947 9.67 116.16 9.67H117.8L112.34 15.84C112.207 16 112.077 16.1333 111.95 16.24C111.83 16.34 111.7 16.4233 111.56 16.49C111.74 16.55 111.903 16.64 112.05 16.76C112.197 16.8733 112.34 17.0233 112.48 17.21L118.18 24H116.5C116.373 24 116.263 23.9933 116.17 23.98C116.083 23.96 116.007 23.9333 115.94 23.9C115.873 23.86 115.813 23.8167 115.76 23.77C115.713 23.7167 115.667 23.6567 115.62 23.59L110.68 17.9C110.547 17.7333 110.403 17.6167 110.25 17.55C110.097 17.4767 109.863 17.44 109.55 17.44H108.67V24H106.74V9.67H108.67V15.95Z" fill="white"/>
<rect x="6" y="10" width="10" height="10" fill="#5B51FF"/>
<rect y="16" width="10" height="10" fill="#44D9FF"/>
</svg>
