<svg width="21" height="19" viewBox="0 0 21 19" fill="none" xmlns="http://www.w3.org/2000/svg">
<path d="M11.5464 3.63916C10.9687 3.63916 10.404 3.87604 9.92362 4.31982C9.44329 4.76361 9.06898 5.39436 8.84802 6.13228C8.62707 6.8702 8.56941 7.68214 8.68234 8.46537C8.79527 9.2486 9.07371 9.96793 9.48244 10.5324C9.89118 11.0968 10.4118 11.481 10.9785 11.6363C11.5452 11.7916 12.1325 11.711 12.6661 11.4048C13.1997 11.0986 13.6556 10.5806 13.9762 9.91611C14.2967 9.25167 14.4675 8.47074 14.4669 7.6721C14.4653 6.60245 14.157 5.57731 13.6096 4.82134C13.0621 4.06537 12.3202 3.64025 11.5464 3.63916V3.63916ZM11.5464 7.25762C11.7503 7.25818 11.9476 7.35777 12.1038 7.539C12.26 7.72022 12.3651 7.97154 12.4008 8.24905C12.4365 8.52655 12.4006 8.81258 12.2992 9.05715C12.1978 9.30172 12.0375 9.48927 11.8463 9.58702V9.86473C11.8463 9.97466 11.8147 10.0801 11.7585 10.1578C11.7022 10.2355 11.626 10.2792 11.5464 10.2792C11.4669 10.2792 11.3907 10.2355 11.3344 10.1578C11.2782 10.0801 11.2466 9.97466 11.2466 9.86473V9.58702C11.0793 9.5024 10.9348 9.34901 10.8324 9.14746C10.73 8.94592 10.6747 8.70589 10.6739 8.45962C10.6739 8.34969 10.7055 8.24427 10.7617 8.16654C10.818 8.08881 10.8942 8.04514 10.9738 8.04514C11.0533 8.04514 11.1295 8.08881 11.1858 8.16654C11.242 8.24427 11.2736 8.34969 11.2736 8.45962C11.2696 8.5122 11.2736 8.56534 11.2854 8.61562C11.2973 8.6659 11.3166 8.71218 11.3422 8.75147C11.3677 8.79076 11.399 8.82217 11.434 8.84368C11.4689 8.86518 11.5067 8.87629 11.5449 8.87629C11.5832 8.87629 11.621 8.86518 11.6559 8.84368C11.6909 8.82217 11.7221 8.79076 11.7477 8.75147C11.7733 8.71218 11.7926 8.6659 11.8045 8.61562C11.8163 8.56534 11.8203 8.5122 11.8163 8.45962C11.8163 8.36069 11.7879 8.2658 11.7373 8.19585C11.6867 8.12589 11.618 8.08659 11.5464 8.08659C11.3418 8.08891 11.1431 7.99101 10.9857 7.81024C10.8282 7.62948 10.7222 7.37751 10.6863 7.09897C10.6503 6.82044 10.6869 6.53332 10.7895 6.28849C10.892 6.04365 11.054 5.8569 11.2466 5.76132V5.48362C11.2466 5.37369 11.2782 5.26827 11.3344 5.19053C11.3907 5.1128 11.4669 5.06913 11.5464 5.06913C11.626 5.06913 11.7022 5.1128 11.7585 5.19053C11.8147 5.26827 11.8463 5.37369 11.8463 5.48362V5.76961C12.0128 5.85417 12.1566 6.00709 12.2584 6.20786C12.3603 6.40864 12.4152 6.64766 12.416 6.89287C12.416 7.0028 12.3844 7.10822 12.3282 7.18595C12.2719 7.26369 12.1957 7.30735 12.1161 7.30735C12.0366 7.30735 11.9604 7.26369 11.9041 7.18595C11.8479 7.10822 11.8163 7.0028 11.8163 6.89287C11.8167 6.84373 11.81 6.79497 11.7966 6.74946C11.7832 6.70395 11.7633 6.66261 11.7382 6.62785C11.713 6.5931 11.6831 6.56565 11.6502 6.5471C11.6173 6.52855 11.582 6.51928 11.5464 6.51983C11.4749 6.51983 11.4062 6.55913 11.3556 6.62909C11.305 6.69905 11.2766 6.79393 11.2766 6.89287C11.2766 6.9918 11.305 7.08669 11.3556 7.15665C11.4062 7.2266 11.4749 7.26591 11.5464 7.26591V7.25762ZM7.52859 7.25762H6.62906C6.54954 7.25762 6.47328 7.30128 6.41704 7.37902C6.36081 7.45675 6.32922 7.56217 6.32922 7.6721C6.32922 7.78203 6.36081 7.88746 6.41704 7.96519C6.47328 8.04292 6.54954 8.08659 6.62906 8.08659H7.52859C7.60811 8.08659 7.68437 8.04292 7.74061 7.96519C7.79684 7.88746 7.82843 7.78203 7.82843 7.6721C7.82843 7.56217 7.79684 7.45675 7.74061 7.37902C7.68437 7.30128 7.60811 7.25762 7.52859 7.25762ZM16.4578 7.25762H15.5583C15.4788 7.25762 15.4025 7.30128 15.3463 7.37902C15.2901 7.45675 15.2585 7.56217 15.2585 7.6721C15.2585 7.78203 15.2901 7.88746 15.3463 7.96519C15.4025 8.04292 15.4788 8.08659 15.5583 8.08659H16.4578C16.5374 8.08659 16.6136 8.04292 16.6699 7.96519C16.7261 7.88746 16.7577 7.78203 16.7577 7.6721C16.7577 7.56217 16.7261 7.45675 16.6699 7.37902C16.6136 7.30128 16.5374 7.25762 16.4578 7.25762Z" fill="#A6A6A6"/>
<path d="M18.7876 0H4.30828C3.95671 0.00105914 3.61959 0.193457 3.36987 0.535551C3.12015 0.877646 2.97793 1.34192 2.97399 1.82788C2.6253 1.83327 2.29199 2.02714 2.04542 2.36799C1.79884 2.70885 1.65859 3.1696 1.65469 3.65161C1.30315 3.65706 0.96729 3.85366 0.719818 4.19886C0.472345 4.54405 0.333164 5.01008 0.332397 5.49607V17.1514C0.332397 17.641 0.472877 18.1105 0.72302 18.4571C0.973162 18.8037 1.31254 18.9989 1.66669 19H16.149C16.5 18.9979 16.8364 18.805 17.0855 18.463C17.3345 18.121 17.4763 17.6574 17.4803 17.1721C17.8295 17.1667 18.1632 16.9723 18.4099 16.6305C18.6566 16.2888 18.7965 15.827 18.7996 15.3442C19.1514 15.3399 19.4877 15.1436 19.7353 14.7982C19.983 14.4528 20.1219 13.9861 20.1219 13.4998V1.84446C20.1211 1.35561 19.9802 0.887105 19.7302 0.541439C19.4801 0.195773 19.1412 0.00109484 18.7876 0V0ZM17.4683 16.3432H2.98599C2.79116 16.3432 2.6043 16.2362 2.46654 16.0457C2.32877 15.8553 2.25138 15.597 2.25138 15.3277V3.67234C2.25135 3.40586 2.3271 3.15005 2.46228 2.96008C2.59746 2.77011 2.78125 2.6612 2.97399 2.65685V13.4998C2.97399 13.989 3.11457 14.4581 3.3648 14.804C3.4887 14.9753 3.63579 15.1111 3.79767 15.2038C3.95956 15.2965 4.13306 15.3442 4.30828 15.3442H18.1999C18.1975 15.6103 18.1194 15.8644 17.9825 16.0513C17.8455 16.2383 17.6608 16.3432 17.4683 16.3432ZM18.8296 10.8761C18.8296 10.986 18.798 11.0914 18.7417 11.1692C18.6855 11.2469 18.6092 11.2906 18.5297 11.2906C18.1743 11.2906 17.8333 11.4858 17.582 11.8332C17.3306 12.1807 17.1894 12.6519 17.1894 13.1433C17.1894 13.2533 17.1578 13.3587 17.1016 13.4364C17.0454 13.5141 16.9691 13.5578 16.8896 13.5578H6.20627C6.12675 13.5578 6.05048 13.5141 5.99425 13.4364C5.93802 13.3587 5.90643 13.2533 5.90643 13.1433C5.90643 12.6519 5.76522 12.1807 5.51387 11.8332C5.26252 11.4858 4.92161 11.2906 4.56615 11.2906C4.48662 11.2906 4.41036 11.2469 4.35413 11.1692C4.2979 11.0914 4.2663 10.986 4.2663 10.8761V4.4723C4.2663 4.36237 4.2979 4.25694 4.35413 4.17921C4.41036 4.10148 4.48662 4.05781 4.56615 4.05781C4.92161 4.05781 5.26252 3.86261 5.51387 3.51515C5.76522 3.1677 5.90643 2.69644 5.90643 2.20506C5.90643 2.09513 5.93802 1.98971 5.99425 1.91198C6.05048 1.83424 6.12675 1.79058 6.20627 1.79058H16.8896C16.9691 1.79058 17.0454 1.83424 17.1016 1.91198C17.1578 1.98971 17.1894 2.09513 17.1894 2.20506C17.1894 2.69644 17.3306 3.1677 17.582 3.51515C17.8333 3.86261 18.1743 4.05781 18.5297 4.05781C18.6092 4.05781 18.6855 4.10148 18.7417 4.17921C18.798 4.25694 18.8296 4.36237 18.8296 4.4723V10.8761Z" fill="#A6A6A6"/>
</svg>
