<svg width="35" height="32" viewBox="0 0 35 32" fill="none" xmlns="http://www.w3.org/2000/svg">
<path d="M12.25 14C13.6345 14 14.9878 13.5895 16.139 12.8203C17.2901 12.0511 18.1873 10.9579 18.7172 9.67879C19.247 8.39971 19.3856 6.99224 19.1155 5.63437C18.8454 4.2765 18.1787 3.02922 17.1997 2.05026C16.2208 1.07129 14.9735 0.404603 13.6156 0.134506C12.2578 -0.13559 10.8503 0.00303297 9.57122 0.532846C8.29213 1.06266 7.19888 1.95987 6.42971 3.11101C5.66054 4.26216 5.25 5.61553 5.25 7C5.25 8.85652 5.9875 10.637 7.30025 11.9498C8.61301 13.2625 10.3935 14 12.25 14ZM26.25 17.5C27.2884 17.5 28.3034 17.1921 29.1667 16.6152C30.0301 16.0383 30.703 15.2184 31.1004 14.2591C31.4977 13.2998 31.6017 12.2442 31.3991 11.2258C31.1966 10.2074 30.6965 9.27192 29.9623 8.53769C29.2281 7.80347 28.2926 7.30345 27.2742 7.10088C26.2558 6.89831 25.2002 7.00228 24.2409 7.39964C23.2816 7.797 22.4617 8.4699 21.8848 9.33326C21.3079 10.1966 21 11.2117 21 12.25C21 13.6424 21.5531 14.9777 22.5377 15.9623C23.5223 16.9469 24.8576 17.5 26.25 17.5ZM33.25 29.75C33.7141 29.75 34.1592 29.5656 34.4874 29.2374C34.8156 28.9093 35 28.4641 35 28C34.9986 26.3644 34.5388 24.762 33.6728 23.3745C32.8068 21.9871 31.5693 20.8701 30.1006 20.1503C28.6319 19.4306 26.9909 19.1368 25.3638 19.3025C23.7366 19.4682 22.1885 20.0865 20.895 21.0875C19.1809 19.3801 16.9996 18.2185 14.6262 17.7492C12.2528 17.2799 9.79356 17.524 7.55865 18.4505C5.32373 19.377 3.41322 20.9446 2.06805 22.9555C0.722871 24.9664 0.00327284 27.3306 0 29.75C0 30.2141 0.184374 30.6593 0.512563 30.9874C0.840752 31.3156 1.28587 31.5 1.75 31.5H22.75C23.2141 31.5 23.6592 31.3156 23.9874 30.9874C24.3156 30.6593 24.5 30.2141 24.5 29.75" fill="#44D9FF"/>
</svg>
