<svg width="19" height="19" viewBox="0 0 19 19" fill="none" xmlns="http://www.w3.org/2000/svg">
<path d="M18.207 13.0896L16.5104 11.393C16.0047 10.8914 15.3221 10.6085 14.6098 10.6055C13.8974 10.6025 13.2124 10.8795 12.7025 11.3768C12.4303 11.6505 12.0713 11.8208 11.6873 11.8584C11.3032 11.8959 10.918 11.7985 10.598 11.5827C9.33497 10.7398 8.24996 9.65691 7.40461 8.39555C7.19267 8.07198 7.09873 7.68525 7.13863 7.30051C7.17852 6.91578 7.3498 6.55655 7.62362 6.28335C8.11646 5.7729 8.38991 5.08981 8.38545 4.38028C8.38098 3.67075 8.09895 2.99115 7.59972 2.48695L5.90317 0.790405C5.39525 0.284223 4.7074 0 3.99032 0C3.27324 0 2.58539 0.284223 2.07747 0.790405L1.58933 1.27932C-0.955489 3.82413 -0.765014 9.17441 4.52974 14.4661C7.72233 17.6594 10.9357 18.9966 13.5415 18.9966C14.3085 19.0222 15.073 18.8948 15.7903 18.6219C16.5076 18.3491 17.1635 17.9362 17.7196 17.4073L18.2085 16.9184C18.7156 16.4102 19.0003 15.7215 19 15.0036C18.9997 14.2857 18.7145 13.5973 18.207 13.0896V13.0896ZM17.1166 15.8279L16.6276 16.3169C14.6226 18.3219 10.197 17.9556 5.61862 13.3764C1.04026 8.79732 0.673193 4.36857 2.6782 2.36356L3.16326 1.87542C3.38165 1.65781 3.67739 1.53563 3.98569 1.53563C4.294 1.53563 4.58973 1.65781 4.80813 1.87542L6.50467 3.57196C6.7191 3.78747 6.84082 4.07824 6.84384 4.38224C6.84687 4.68623 6.73097 4.97937 6.52087 5.1991C5.99978 5.72351 5.67473 6.41107 5.60019 7.14658C5.52564 7.8821 5.70612 8.62089 6.11139 9.23919C7.0719 10.6766 8.30705 11.9099 9.74584 12.8682C10.3623 13.2736 11.0991 13.4551 11.8333 13.3826C12.5675 13.31 13.2546 12.9877 13.7798 12.4696C13.9991 12.257 14.293 12.1389 14.5985 12.1408C14.9039 12.1427 15.1964 12.2643 15.4131 12.4796L17.1096 14.1761C17.219 14.2839 17.3059 14.4122 17.3655 14.5537C17.425 14.6952 17.456 14.8471 17.4567 15.0006C17.4573 15.1541 17.4276 15.3062 17.3692 15.4482C17.3109 15.5902 17.225 15.7193 17.1166 15.8279V15.8279Z" fill="#A6A6A6"/>
</svg>
