<svg width="55" height="55" viewBox="0 0 55 55" fill="none" xmlns="http://www.w3.org/2000/svg">
<path d="M13.75 15.7143C14.271 15.7143 14.7706 15.5073 15.139 15.139C15.5073 14.7706 15.7143 14.271 15.7143 13.75C15.6749 12.004 16.2521 10.3 17.3446 8.9375C18.8659 6.9339 19.6747 4.47977 19.6429 1.96429C19.6429 1.44332 19.4359 0.943701 19.0675 0.575326C18.6992 0.206951 18.1995 0 17.6786 0C17.1576 0 16.658 0.206951 16.2896 0.575326C15.9212 0.943701 15.7143 1.44332 15.7143 1.96429C15.7537 3.71027 15.1764 5.41428 14.0839 6.77679C12.5627 8.78038 11.7538 11.2345 11.7857 13.75C11.7857 14.271 11.9927 14.7706 12.361 15.139C12.7294 15.5073 13.229 15.7143 13.75 15.7143ZM31.4286 15.7143C31.9495 15.7143 32.4492 15.5073 32.8175 15.139C33.1859 14.7706 33.3929 14.271 33.3929 13.75C33.3534 12.004 33.9307 10.3 35.0232 8.9375C36.5445 6.9339 37.3533 4.47977 37.3214 1.96429C37.3214 1.44332 37.1145 0.943701 36.7461 0.575326C36.3777 0.206951 35.8781 0 35.3571 0C34.8362 0 34.3366 0.206951 33.9682 0.575326C33.5998 0.943701 33.3929 1.44332 33.3929 1.96429C33.4323 3.71027 32.855 5.41428 31.7625 6.77679C30.2412 8.78038 29.4324 11.2345 29.4643 13.75C29.4643 14.271 29.6712 14.7706 30.0396 15.139C30.408 15.5073 30.9076 15.7143 31.4286 15.7143ZM49.1071 19.6429H1.96429C1.44332 19.6429 0.943701 19.8498 0.575326 20.2182C0.206951 20.5866 0 21.0862 0 21.6071V35.3571C0 38.4066 0.709993 41.4142 2.07375 44.1417C3.43751 46.8692 5.41758 49.2418 7.85714 51.0714H3.92857C3.40761 51.0714 2.90799 51.2784 2.53961 51.6468C2.17124 52.0151 1.96429 52.5148 1.96429 53.0357C1.96429 53.5567 2.17124 54.0563 2.53961 54.4247C2.90799 54.7931 3.40761 55 3.92857 55H41.25C41.771 55 42.2706 54.7931 42.639 54.4247C43.0073 54.0563 43.2143 53.5567 43.2143 53.0357C43.2143 52.5148 43.0073 52.0151 42.639 51.6468C42.2706 51.2784 41.771 51.0714 41.25 51.0714H37.3214C40.0489 49.0375 42.2013 46.3301 43.5679 43.2143H49.1071C50.67 43.2143 52.1689 42.5934 53.274 41.4883C54.3791 40.3832 55 38.8843 55 37.3214V25.5357C55 23.9728 54.3791 22.474 53.274 21.3688C52.1689 20.2637 50.67 19.6429 49.1071 19.6429ZM25.5357 51.0714H19.6429C15.4752 51.0714 11.4782 49.4158 8.53118 46.4688C5.58418 43.5218 3.92857 39.5248 3.92857 35.3571V23.5714H41.25V35.3571C41.25 39.5248 39.5944 43.5218 36.6474 46.4688C33.7004 49.4158 29.7034 51.0714 25.5357 51.0714ZM51.0714 37.3214C51.0714 37.8424 50.8645 38.342 50.4961 38.7104C50.1277 39.0788 49.6281 39.2857 49.1071 39.2857H44.7857C45.0483 37.9927 45.1799 36.6765 45.1786 35.3571V23.5714H49.1071C49.6281 23.5714 50.1277 23.7784 50.4961 24.1468C50.8645 24.5151 51.0714 25.0148 51.0714 25.5357V37.3214Z" fill="#297DF9"/>
</svg>
