<svg width="35" height="36" viewBox="0 0 35 36" fill="none" xmlns="http://www.w3.org/2000/svg">
<path d="M0.961745 29.6731C0.502696 30.1355 0.189971 30.7249 0.0631955 31.3668C-0.0635803 32.0087 0.00129824 32.6741 0.249611 33.2787C0.497923 33.8834 0.918494 34.4 1.45803 34.7632C1.99757 35.1264 2.6318 35.3198 3.28035 35.3188C3.71098 35.3196 4.13751 35.2345 4.53543 35.0684C4.93334 34.9022 5.29478 34.6583 5.59895 34.3507L16.3616 23.4893L11.7244 18.8117L0.961745 29.6731V29.6731ZM27.8606 9.54259L32.5437 7.09685L35 2.30901L32.712 0L27.9677 2.47882L25.5442 7.20491L19.8362 12.9653L22.1526 15.303L27.8606 9.54259ZM28.8855 22.0977C28.7369 22.0889 28.5949 22.0536 28.4441 22.0536C27.6443 22.0536 26.886 22.219 26.1779 22.4836L12.7209 8.90304C12.9831 8.1885 13.147 7.42324 13.147 6.61608C13.147 6.46391 13.112 6.32056 13.1033 6.1706C12.8716 2.72803 10.0613 0 6.59108 0C5.58147 0 4.63524 0.249206 3.78078 0.661608L8.13609 5.05689C8.36555 5.28845 8.52289 5.56192 8.62778 5.85082C8.91406 6.63372 8.7589 7.54454 8.13609 8.17527C7.70996 8.60532 7.15052 8.82144 6.59108 8.82144C6.33322 8.82144 6.07754 8.7641 5.83278 8.67148C5.53814 8.5653 5.26976 8.39603 5.04607 8.17527L0.690767 3.77999C0.264007 4.66369 0.0399337 5.63303 0.0351769 6.61608C0.0351769 10.1182 2.7384 12.9543 6.14965 13.1881C6.29825 13.1969 6.4403 13.2322 6.59108 13.2322C7.3909 13.2322 8.1492 13.0668 8.85724 12.8021L22.3143 26.3827C22.0384 27.1133 21.8941 27.8878 21.8882 28.6697C21.8882 28.8219 21.9232 28.9652 21.9319 29.1152C22.1635 32.5577 24.9738 35.2858 28.4441 35.2858C29.4537 35.2858 30.3999 35.0366 31.2544 34.6242L26.8991 30.2289C26.6796 30.0037 26.5117 29.7327 26.4074 29.4349C26.2603 29.0406 26.2284 28.612 26.3156 28.2C26.4028 27.7879 26.6053 27.4098 26.8991 27.1105C27.3252 26.6804 27.8847 26.4643 28.4441 26.4643C28.702 26.4643 28.9576 26.5217 29.2024 26.6143C29.4887 26.7223 29.7596 26.8789 29.9891 27.1105L34.3444 31.5058C34.7531 30.6435 35 29.6886 35 28.6697C35 25.1676 32.2968 22.3315 28.8855 22.0977Z" fill="#44D9FF"/>
</svg>
