<svg width="53" height="48" viewBox="0 0 53 48" fill="none" xmlns="http://www.w3.org/2000/svg">
<path d="M28.6696 9.856C26.3046 10.835 23.9836 12.1 21.9926 13.332C21.1236 11.99 19.8476 10.626 18.5386 9.405C19.4076 7.634 20.6176 5.61 21.1786 4.488C22.1686 2.508 22.3226 0 22.3226 0C25.3256 3.388 27.6026 7.667 28.6696 9.856ZM21.0576 13.915C19.5616 14.883 18.2966 15.785 17.4056 16.445L17.1746 16.61C15.8216 15.708 14.3036 15.499 13.1926 15.499C12.5766 15.499 12.0706 15.565 11.7516 15.609L10.5966 15.807C10.7946 14.179 11.1906 11.671 11.7956 10.153C12.7526 7.766 12.5986 6.094 12.5986 6.094C12.5986 6.094 18.6596 10.175 21.0576 13.915ZM52.8036 20.669C52.8036 20.669 50.9666 22.6049 49.6246 25.179C48.6126 27.137 46.6656 30.745 45.0486 32.67C44.2786 30.712 43.0136 28.853 41.3416 27.269L41.4296 27.137C42.6064 25.366 43.9926 22.792 44.7736 21.142C46.7976 21.318 50.5376 21.505 52.8036 20.669ZM29.9126 17.545C28.1966 18.887 25.9196 20.889 23.6316 22.341C23.53 22.3545 23.9988 22.292 22.6416 22.473C21.1456 20.185 19.3416 18.513 18.1756 17.424L18.0656 17.325C21.0136 15.136 30.7047 8.371 37.2056 9.427C38.9326 9.702 40.3406 10.835 41.2426 12.309C39.7656 13.2418 35.2842 13.3579 29.9126 17.545ZM44.2786 19.514C43.8826 20.636 41.9906 24.31 40.5166 26.532C37.3156 23.87 33.1136 22.374 28.3066 22.165C31.5186 19.998 34.5766 17.754 36.9196 16.984C38.8057 16.3649 41.2212 15.5222 42.7606 14.454C43.8166 15.356 44.8176 17.985 44.2786 19.514ZM38.9986 39.71C40.0986 40.601 41.9136 42.009 43.2336 42.713C41.5726 45.21 38.6136 46.684 34.7086 46.035C28.8566 45.056 25.3916 44.781 23.2466 43.725C24.7316 41.514 25.1936 38.093 25.2926 33.176C30.0556 35.662 36.2156 37.477 38.9986 39.71Z" fill="#297DF9"/>
<path d="M44.4325 40.205C44.3445 40.1281 44.2565 40.051 44.1905 39.974C39.2296 34.309 30.1325 33.253 25.3145 30.492C25.3145 30.481 25.3145 30.481 25.3145 30.47C25.1935 27.753 24.3575 25.432 23.2685 23.496C30.6275 22.517 36.2265 24.376 39.8785 27.434C44.0805 30.954 45.6975 36.036 44.4325 40.205ZM12.1145 31.163C13.8525 35.288 17.2845 41.811 15.1615 44.715C14.3805 45.782 13.4785 46.772 12.6535 47.619C11.5095 47.586 10.4425 47.289 9.56254 46.607C6.18554 44 -0.986459 34.441 0.113541 25.586C1.21354 16.72 6.57065 15.895 8.83665 16.599C8.83665 16.599 10.3767 18.667 10.1787 20.273C9.98054 21.89 10.3765 27.027 12.1145 31.163Z" fill="#297DF9"/>
<path d="M24.2255 31.24C24.1925 38.115 23.6755 42.284 21.2995 44.264C20.1225 45.254 18.0435 46.475 15.8435 47.135C15.9975 46.97 18.9125 43.67 17.6365 38.665C16.3275 33.528 13.5884 27.786 13.3905 24.255C13.2255 21.208 12.9395 18.4691 11.9275 16.698C12.7305 16.566 15.3485 16.291 17.1965 18.018C19.3965 20.064 24.2585 24.354 24.2255 31.24Z" fill="#297DF9"/>
</svg>
