<svg width="29" height="33" viewBox="0 0 29 33" fill="none" xmlns="http://www.w3.org/2000/svg">
<path d="M11.4282 32.788C12.0632 32.8899 12.7184 32.9362 13.3635 32.9362C20.5603 32.9362 27.1321 26.7971 28.6642 18.658C29.4807 14.343 28.7953 10.0466 26.7491 6.57427C24.6626 3.01861 21.3969 0.740763 17.5666 0.148153C16.9316 0.0462977 16.2765 0 15.6314 0C8.43457 0 1.8627 6.13907 0.330612 14.2782C-1.36275 23.2785 3.61654 31.575 11.4282 32.788ZM17.234 1.9445C20.4393 2.44452 23.191 4.38902 24.9852 7.43541C26.8197 10.5559 27.4244 14.4356 26.6886 18.3524C25.3178 25.6304 19.5926 31.112 13.3735 31.112C13.0208 31.112 12.6781 31.0843 12.3253 31.0565C11.529 29.1027 9.06958 21.7599 15.2383 18.1487C22.1932 14.0837 18.2621 5.26867 16.3773 1.85191C16.6595 1.87043 16.9518 1.8982 17.234 1.9445ZM2.31628 14.5838C3.57623 7.89838 8.51521 2.73156 14.1396 1.9445C15.4701 4.19457 20.1873 13.0745 14.1396 16.6116C7.74916 20.3432 9.01919 27.3249 10.0372 30.5472C4.34227 28.612 0.945466 21.871 2.31628 14.5838Z" fill="#2456A0"/>
</svg>
