<svg width="20" height="16" viewBox="0 0 20 16" fill="none" xmlns="http://www.w3.org/2000/svg">
<path d="M19.9954 10.1173C20.0403 11.4449 19.7559 12.7626 19.1686 13.948C18.7702 14.4344 18.2172 14.7627 17.606 14.8756C15.0781 15.1098 12.5397 15.2057 10.0017 15.1631C7.47298 15.2077 4.94372 15.1148 2.42467 14.8849C1.92663 14.7924 1.46574 14.5539 1.09823 14.1985C0.280565 13.4286 0.189713 12.1115 0.0988612 10.9985C-0.0329537 8.99727 -0.0329537 6.98928 0.0988612 4.98806C0.125145 4.3616 0.216509 3.73976 0.371416 3.13299C0.480961 2.66453 0.702592 2.23111 1.01646 1.87154C1.38647 1.49732 1.8581 1.24527 2.37016 1.14807C4.32884 0.901233 6.30242 0.798939 8.27552 0.841981C11.4553 0.795604 14.2445 0.841979 17.5424 1.10169C18.067 1.19292 18.5519 1.4453 18.9324 1.82517C19.1868 2.08495 19.3768 2.40293 19.4866 2.7527C19.8115 3.77056 19.9711 4.83584 19.9591 5.90632C19.9954 6.42574 19.9954 9.5608 19.9954 10.1173ZM7.94845 5.3498V11.0912L13.3269 8.2066C11.8187 7.35327 9.82908 6.38864 7.94845 5.3498Z" fill="#297DF9"/>
</svg>
